<mxfile host="Electron" modified="2023-11-08T19:49:35.934Z" agent="Mozilla/5.0 (Windows NT 10.0; Win64; x64) AppleWebKit/537.36 (KHTML, like Gecko) draw.io/21.1.2 Chrome/106.0.5249.199 Electron/21.4.3 Safari/537.36" etag="PG1cQs_uHb8fCGpW80Ib" version="21.1.2" type="device">
  <diagram name="Seite-1" id="OT9MRPxYlwCW-cpVlOml">
    <mxGraphModel dx="1206" dy="938" grid="0" gridSize="10" guides="1" tooltips="1" connect="1" arrows="1" fold="1" page="1" pageScale="1" pageWidth="1169" pageHeight="827" math="0" shadow="0">
      <root>
        <mxCell id="0" />
        <mxCell id="1" parent="0" />
        <mxCell id="np1AuirhnK_I6b898Ldq-2" value="" style="shape=image;verticalLabelPosition=bottom;labelBackgroundColor=default;verticalAlign=top;aspect=fixed;imageAspect=0;image=data:image/png,iVBORw0KGgoAAAANSUhEUgAAAgAAAAIACAYAAAD0eNT6AAAAAXNSR0IArs4c6QAAIABJREFUeAHsXQeYFMXyr0twicxx5Jyz5JxzzulIR4a7I5vDUzFgwISKomJARVFRDKigIEmyZPDpMz3/T33miAle/b9ab3Fvb8NMd89Mz2zt9923e7vT093VVfX7TYcqAH6xBFgCLAF5CSQAQHUAaA0A3QBgIACMAYBpAJAHAJcAwDIAuA0A7geAxwHgeQDYDAC7AeAIALwPAJ8BwA8AcBYA/gSAMwDwPQB8CQD/BwAfAsC7AHAMAA4CwNsAsC3/Xg8AwHIAWAoA2QAwGAA6AEA9ACgDAPHy3eQ7sARYAiwBlgBLIPYkkAEAbQBgHABcCgCrAeANAPggH6wRAHT+O5dPJIg4PJdPRhYAwDAAuCCfJMTeqHKPWQIsAZYASyDmJZAGAI3zn5znA8AdALAx/2n7J83BXRXxoH6eBIBN+f2fAQBtASA95rWDBcASYAmwBFgCnpBANQAYCwC350/B/zdGAF6UKPwPAD4CgBcB4AYAmAAATQCgiCe0gTvBEmAJsARYAp6UAD3ZdwWAi/PXyj9nsFe2VEH7FI4DAO0/oH0H9QEgzpNaxJ1iCbAEWAIsAa0lQOBTFwAmA8AqADicv6FO9MmXy5nf1/Bt/hLClQDQEwCKaa0x3DiWAEuAJcAScKUESgJAHwC4Kh90vuGne2VP96rID20+PJpPyEYBAI0Zv1gCLAGWAEuAJWBKAvSETzvxaR2ajsLR2rQqoOL72CNLOuJIRx+JtNFY8vFEUybAF7MEWAIsgdiRAG006wcA9wHAfxjwPUd4vgaAdQAwFQAqxI5ac09ZAiwBlgBLIJQEaJqYdpo/DQA/Muh7DvQjzbbQcgEFTWoWSjH4O5YAS4AlwBLwngSqAEAuAGwBgD8Y9GMK9MMRAoqOSNENW3lP3blHLAH3SaA8AAwCANrhS4FSKNQpRRHjdTz3jaUOLW6avxZ8iAGfAT+KDnwMACsAoD0fNdTBdLkNsSSBpHxHHe7JjDb1UMxxfrEEokmgRT55pMAy4Z78+HuWTSQdoLwId+ZvIoymb/w7S4AlICGBSvnnqSMZJP32KwDkSNTDRb0rgdT82aL9DPpMehTrAAUiWsi5DLzrPLhnzkrgNZMGS5nP+MUSIAlQbP2V+RntohFI/p2f+mV04Pf8TaMUF4KXJNn/sAQUSICSgYgYJZMABcJ36S2KAsBEANglqDsi+uaaMsnFS2G1Dr2weKXqwm2u3KYrlmt4AcYnJArfw+Nj8wkAXA0AlPOBXywBloCgBE5JOAomAYJCd2kxCsF7KwDQuW4GJgCMS0jASi07YcvsxThgxZOYvfk9XPTuOd9frZ5DhGU05O4NvnvkHf0Fxz29G7tfcSc2GDpRilR4dMwoCuHr+RkeOUeBSx0LN9sZCaQoiKPOJMCZsbOrVtocOhoA3uSofH+RnoSkIli9Sz/sfd0DOGfPf88Dvh/4/e8qCID/XoHvWRsOYJvZl2KpGvWECYZHycB7ADAPAGg/Cr9YAiyBKBJorcgRMAmIImgX/lw9PxzvF4p0xNVgFRcfjzW7DcR+Nz+G8w58Gxb0A4HaKgIQWMfkl49h+7yrsWTVWq6Wr2Ido2RFNwIAbW7mF0uAJRBGAg0UGh6TgDBCdtnXHQDgFQCgqdWYB5WklDRsljUPszf/0xDoB4KzHQTAX9/CU38iLRtUatU55scsQG/pSPPjANDSZTbIzWUJ2CKBBAA4E2Awss6DSYAtw2ZJJe3y11JldcAT5dPLVcROi2/Aufu/Ng38flC2kwD466T3Cc/sxXoDx/IGwoIEdjsADLHEcvimLAEXS2CnQgJAzp9JgLuUgZaBNinWAeUkIDE5Vfk9Q/U5tUwm9l62Ghec+E0Y+P1g7BQB8Nc/Y9tH2GjEVKTli1B9VfldfGISJhRJtrweBW1+BwCGustEubUsAesk0FbBRsBgw2cSYN14qbozRet7SYFDDR57Zf+XrdcU2869HIevfgUz6jdTdt9QfU4oUhRbz7oYcw59Lw38fgB2mgD420GbBu1YGmg66SLsceN6rDNwCqaULmfpeIUaQ5PfUWhqnhFQ5U34Pq6WACXjUG2wTAL0VInmAPCCBeMtrT+0u57Oz3e/8i6cvvVDHxDTLnurwb9O35E47Y1/KQN+P/DqQgD87Rl4x9OWHyO8YPpVOHXnrzh1xxkceN92JFJQqmYjad2wUF+JCAzW01S5VSwBeyRA+djNRgM0YtRMAuwZPyO1NAGA53Q7ypdcojQ2GJKFBE45B78rAMJz3v4Cy9ZtYkTPhK4pU7shjlm7rUCdfrBU8a4bAaA+zT92BjssXIY042EVqDbPvvwvEkBEIP9v1PrT2HbBrVixVQ+k5QKr6pa478H8JGhGbImvYQl4TgLJTAI8N6bUoUYAsF4n4C9esZovcA6B78KTf4QE4Nm7P8cytS16coyLwxZTFiAF2VEB9OHuoSMB8Ld10otHkJZYJAAzYtlmUy45D/5+EuB/n/DaF9j16rVYs/dYTExOi3gfq9oX4b4HAKCHJz0Bd4olEEUCTAKiCMhFP9cHgHW6HOejTXz0pD/qkTdw0emzEYF31q7/YOlaDSwBhmIVqvzVhvxofX5AtOJdZwJA/Z1//FdsNeNCyzYJ0vS/H/TDvWdt/go7Xno/ZjbraMl4RwD6aPVtBIA6LrJ3bipLQIkEmAQoEaNjN6mcf/ZZi3P8FS/o4NtVHzy9Hw5wZ+38Pyxds3405yz0e/3BE3De/m8iko9w7RL5XncC4O/TmMffsmxvQJOsJVFJgJ8cjFh3AptOvhjTylUWGl8JsA9XH8URuB0ASjlmzVwxS8ABCTAJcEDoklUmAsASAPjJAkcYzkGG/D49sxK2mXUJTn3ttCmwnbnjUyxVvW7Ie8r0iYL5UJx+P+DZ9e4WAkDyoNMP9QaOUy57GrfG4xcaJgFEBqZs/wX7rHgJa/QcrcvRwm8AIA8AyMb4xRKICQkwCXDPMLcHgKMyIClbljaV1RswBoc/sAkpKp1ZkJ25/d9Yslod5QBE+w0mvvCO6faYbX+o691EAPzt77j4eoS4OOXj0GhMnikS4J8VmPDqF9huyZ1YtkFL5W0S0PnTADDQPW6BW8oSkJMAkwA5+VldujQArHZyg1/JqrWxx5UrpSLm5b7zgyUb0ihLH50k8IOb3e9uJAAkoyH3voBJqenKAbfVvBuESICfDAx77BA2HJ2LSSnq22aSDGwGAAqjzi+WgCskQMf8KG82PSmOBIBZADDH4N9CAPjepIEYcR58RFBOdaYAwJcWjIuRscMKzdrh4JXPCj3tBwIxzRZQkh3V/Wg8appvk1tgXXZ/disBIDlNfukolqhcQ+m4UETCHjeslyIBRAZoVqDFrGsxpXSm0vaZ1MHfAeBqACDfyi+WgBYSoCfCyQDwUP6RvmOa525nEmBebRoCAMU1t9/5xcUhgdrYJ3coe6pumb1IaT/iEhKw66W3KWufDGlwMwGgflMQpsqtuyodHzr2N2TNXmkSQERg0tbvscPF92KJqur3jZiwr1MA0NG8GXMJloAaCVDa1gUAsM2CkL5KjT+MUS1SIwbP34VynFOKU9qZbMe4nK8jsWgyNhkzA6e+ekopsPa69v7zdajoE0USHLzyOaVtjGUCQH2nnAi1ew9XOk6pGRVxzPMfKiEBvuWBHWd8IYjLNW6ntJ0mdPJ/ALAKAIp73gtxB7WQQN386acjJpTUKeOIVi8BGoWn5Vd4CQwCgI/sHmuK0kex+Gfv/kw5qFI8AJUR4YikDLv/ZeXtjHUC4CMBJ39XfkKgTN3mOHHLN+pIQH7EwQGrtmHVToMt2chowP7+AwDDw5sx/8ISkJNAxfxNX2cNKGM04NXpdyIySXKi8WTpKgDwvN1jTWu/3a+4E3MP/2gJoNLxwOTipZTpHwUZGvnwFkvaygTgnE+utFeDMguq1MWqnQf7jvz5N/mpfB/+xFGsOygbE5KsC3kcQRYbAIB8Nb9YAkokQFNL1wHALxGUTqlxOlBPXyWS8sZN6LzxUgD42c5xSMuogD2vWYULTv5uGZjO3feV0uN+RdKKIQWykQFqq8q6fQ9AIbmcPovNxs9R6meaZC1WPgsQSCRoqaHukOkYn5CotN0G7PIHAMj2hjviXjglAXoqng8AXxlQOLsVXHV9lzolZM3qpT0de+0c76LFSmDHRddh3pGfLAVSWk+u3EbdprKixUvi+KfftrTNhUDQRAhhzxGA/L63mLpQqe13ueJ+S0kAEQKaEajaZYjSdhu00WcBgDZn84slYEoClJDiA4NK5oRiq67zGVPS8ebFoy06chlyrCh4DznzuXu/tAVEG43MDtkOER2nc+oTnt1nS7tFSYBXCQDJg5IpiYxbqDK0F2ToA1swe9ff2QMDn+JVfqYUxQ7kHaC9Ab286bK4V1ZIgMJO/hnKWDz83ZNWCNIl90wBgPvtGls6j91w2CScvvVD2wBU5Y5/AowRD75qW9uZAPy1D6CAHE6f9UV+VKWzKaUzcOb2/8Ppe36zfDaACEXPm57DkjUaKiMxBuRAJwUor0BRl/gkbqYDEqApf4rsZqdi6lLXbAfkrUOVlK73uF1jXqPbAKRUsAWcuYlpbZFydHyQNuqp6mPf5Y/Y2n6RPlMZL88AUP8om2CVtt2UjWu1Tn1w4amzOGv/77aQAMo5QJkIbU4+RLFZmujgeLgNekkgAwB2qHKSLrwPpa+NtddMADhjx1hR5L4xa7fZDpwEEuUatlAGEp0W32B7H5gAhJgByCeN8w58qzSMc7fLbveN79x3/rCFBNBswKQ3v0MKU1ykWEllehrFpn8DAIp/EhdrDo/7G1oCzQDg4yhKY5dyOlEPnXGPpVcJAHjajvFOL1cRB97xtGOg2Wr6UmX61Dwrx7F+iJAAr88A+GVCWRyLVaiqZJxpX4p/hir32J+27Avw7zGYsOlzbDgmF+PiE5T0xYB9U06BcrHk+LivhSXQxe7jXgYU0y4DoHq+i7EpsTYA8KHVY0Dr/ASYOQe/cww06Wy+qsxydfqMkM474Acsu95jhQCQPKe8cgIpcJQKvS5TpzHmHf3Fp7cLTp61bV+AnwgMfmgPlql3gZK+GJDHpwDQrjAs8DexIIEaMXLEL5wx/QoAnWNhoPOn+y60I5RvRoPmOH79HseAnwCBThakZ1YKN+6mvs9s1PI8INgF3irqiSUCQPIa/dhWZeftL5iUd15/F54+Z9u+AD8JmLL9Z2ydd7NdmQcpsdDcGPGD3M18CaQDAG0IMeUMPXQ9Kf3gGNEGmuZ71eqxS0pJwy4X3WxpIB+jwFi79zAlep1SqizO2PbReTAwWr8O18UaASCZd71khZJxp5mj4Q9sKjDudu4L8BOB0c++h1U6DFDTp+i+/lEAoBNB/PK4BGjzh50hXulJm9bZdwMABaagI2f3Gfx7wQLgIvAf4vEx9nevJwB8boEMCzglSqlr57G+SACr6sgfZfYbuWZzARCIVK9uv8UiAaAxqD9ofAHdFNX91DKZOOftLwqMv937AvxEoNuyJzGlTHkl/YoiDwqLXtPvPPjdmxKgsL5WKtM3APAYAIwEgDISIqwAAKcVtzVWwJ9I3jIAOKdYfgX0hjb5DbpzfQEn6SQQqjzy12nJjdr0S0SmsUoAKKJkRv1mBfRU1AaI2AbLfj7tC3jbnngBfgJA7xNe+wLrD5+NtL9GtD8Gy9G+qIESfpuLaiyBsQaVwKySEbBSSspuAECx5GVfBP7vKm5rrIB/MgCsVyy7Avqgwya/Qo5Z4ZE/2vQXfH+3/R+rBIDGadqW95UlfOrxj3sK6QLtC5i5z554AYEkgD5TNMFSNRsXsEcLbJ0CB10DAPGyjpzL6yOBWhac+yZFeUrxtBFlsvqnYqWOFfAvm7/UYpmDKFm1Fo57enchp+g0QFLqYBU6U7pWA8w59L12/TMr31gmACQrWsNX8bScmJziIxSh5D/nkH3xAgKJwORtP2KLWdcoTWkdxnZoCTZVHwjjlshIgIBaiZPMv892AGgt06AQZRn8QwjF4Fd1AOB9xWNcQF8ohK+O4EgpfhOSihRoq4gcKMb/lE0nXQ/+BFaxTgBIBh0WLpPWCdKjGl37h9WJnCN/2hY0KJAE0OdBq3dhsUo1lfQxgr0cAIDyBn0QX6apBAio6WldhbLQff5hQSSpSgDwnqI2+vsZK0/+HQHga8Wy88sQi6QXx/63Ph7WCYZ6OrLzu6odep5vq4wM+lz/oLZ9NCtPJgDnfLEbKrXuokQ3Bq98Lqxu5Bx1jgRkvf4l1uo7QUkfI9jOJwBAYcP55VIJbI0wuGaU5xcAGGWBDBj8xYU6BgDopIWZcTR8bYXm7XHaG/8K6/zMApPq6wfe/pThvkSSEQGm6rY5eT8mAH+FEJ7+5gdYJK2YtI4Uq1AFcw//GFZHnDoh4J8V6HLlw5iUKt/PCDbyPQD0FndTXNIpCQyIMKhmDOPfANDcgk5UtmDqOlae/C9SOLNTQBdo/ZTW1Rec/D2s03MS4Kju3Hd+UBLwJ9SRL6f7Jls/E4C/cwj0ueGhArot6g9bzbgwoi3kHT9ra/hgP/j730c+fQrLNmilpK9hZERZYqdbgAF8S4skQLs4VQT8oellK86HUvv2hlE2UUWOBfBPyD91ISqjiOXoaceJ5D1mQa9l9uKI/TCqV0PvezGiYzfbLh2uZwLwNwGg8ZCRh1+PKBX05JePR9SV+SfO4rTd9h8T9JMA2iDYZOJSJRsg/f0O8X6DBUvAFkFgbN92aojBM+s0ifXR8T4rXpSVymx7Il0fC+BPURxfUSy38zKt03ckzt3/dUQnpwPATX7pqJLQr03GzNC+ryLylgG8IXdv8JxMKKhPaply5/Vc1H4qt+4aVTaUQ8BJEkBkoO8dmzC1bAXp/kaQE20qpyPH/NJYAioC6cyxqH90ZI32FKhS0lgAfzol8Y5CmZ2XfWJyKvZetjqqcxMBIyvKVGrV+XzbReVBRxojreta0W677skEoOAMAMl9yL0vSOsM6Vq/mx6NaicLTjkTMMg/E0Dv417+P6zScaCSPoexsbcAgB5I+KWhBCjHvezgU8heq14UbUq2ff7ysQD+jQGA9mH4+6zsvXil6ufToNoFUDL19F3+iHTfKdTvuKd2RXXkMu10siwTgMIEgMaj0chsad2hPSPz9n8TVXcWnjpnezbBQALg/9w69yYr0wzTEm5Jq0CC7ysugUskweIrACguXn3UkldJts9vyLEA/r0A4AdF8vLLzfdOU5pz9vw3qjNzEswC6ybHq2Iqt1nWPNf0ObD/Rj8zAQhNAEh/KMmTrC0Z1R+KGjhjr3N7AvwkoPctL2BSWnHpfoeR22EAyIjq8fkCWyWwJ8xgGVWC+Ra3lpICGW1LuOtiAfzHW5XGt+nYWbjgxG+uAkJyvLJ6Q7nj5+77ylX9Ngr8/uuYAIQmACSfntesktYhOiUz4bn9hnTIydDBfgJA78MfP2xl4KBTAEBLlPzSQAIUS18m8M+/ACDJ4n7kSDryWAB/irlwVlJOhZxdfEIi9rhypSHn5QcUHd6zNhxUsrvZjX03K38mAOEJwMJTfypJGFS+aRtcdPqsYTuatd+Z/AGBJGD8y//B8heoCY4Uwi8RblSzGDf49gYkMDvE4BQCggjXUHAZq19tI9Qfra2xAP5DrXjyp6ffUY+8YdhpmQUeK6+v3rlvNL2I+nuZOo1x4ck/XNl/M7JlAhCeAJAcR6/dGlVXjPinQXc9Y0qXZh1wngTQUcG6Q6Yr6X8IGdE+JQpLzi8HJbApxMAYHfDPbDrjSTMMxwXaGQvgT8GbqJ9Gx8zQdWVqN8Tsze+ZclhmQMfKa8c+ucNQH6PJzK3kx6xsmQBEJgAkz7r9RknrFNkUzSiYGR+nMgkGzgTQ57YLbrVqc+DnAECblvnlgATSJMGD1ubterUxOcUdC+DfBwB+iwZkZn+n3OY6JvIx6jgrt+kq7axr9x5uylEbbZuO1zEBiE4Apm/9ECnbn1lbCr6+382PmdIrXTYGEgnos+IlLJJeQloGwTLJz01iReRYu7DJtfUQ85IZUHr6tPN1pcH20i74wXY2zIG6uluQshlbz7zI9FOKTqA2cs1mGX32lU0smqx1TgPV8mYCEJ0AkMzb5VwprVslq9Y2HTKbSMD0Pc6fDiASMPyJo1i8cm1pOYTw43SSrKEDfjSmq+wbYiCMDu5PAFDUAen1AIAPIrT7NQCo4kC77KyyMwD8HEEGRsfw/HW02Y/OzKsGF7vvV6FZu/N9EpVP2zmXuV4OZuTOBMAYAcg78hNS6GtRvfKXEwmiRcGCpr2tBwmYsOlzrNCim7Qc/PIIeKcl5Vp2OtJYrys7QPhmB/Q5B4WXCgBjAeAWAHgTAF7ITzvcz8E22VV1OwD4UWLcCo0zPfEOXbXR9aBHcfpl5ZKeWcmzEf/CkQImAMYIAMlvwIonpXWsWIWqOP/4r6btjcIGZzuYOyBwX8DkrT9g1S5DpGURwl4/joEHOLuwImo9V4QYAKODuizq3fkC1RJoBQCUatPoGEW9jtKfjn5sq2lnFA5MHPv+9FnMaNA8an+jya7/LWvdL4t3jQMajRcTAHPyqtSyk7Sedb/yLiE9owRC2bt+xUAwdurzlO0/Y62+E6RlEcIm3wOA8qqdJ9+vsARWhRC+0QGdW/h2/I2FEqBNMt9KjFehcU0uWQYnPLtPyBE5BvRhwG3QnesL9c+srCo0b2/qrLZuMhBtDxMAcwRARYyJtLLlMe/Iz0K2l3f8T5yqCQmYuuMM1h8+W9r2QtjqCQAoY6E/5VsDwMYQgjc6mENYgrZJoEn+TlmjYxP1uvRyFaOmKxUFFLvL0dGq0rUaRO1zRF2Pi/MMGTIrfyYA5ggAyZcyQ0bUJwOzdJ0vvEmIAFD9OUf/1GIWwD/70CRribQ8QsjzEACUsM3LxmBFB0MI3ehAtoxBeTnR5QYA8F+JcSo0npTZbtob/xJ2PmYBxurrKeOarHwajZjqGXmYlTcTAPMEgFIGFy0mdySOZuBkjtvOO6IXCWgx6xppOwxhx7sBgI6r88sCCdCuS9FBoxDC/LJWAhQlS2aMCo0tRbebtes/ngG7BSd/RyI0EnqMtA9i9u7PPCMTJgDmAd2szOj6rpeskNI70tkO86+R0ru57/yh1UxA24W3IcTFScslyJ632BBu3lpPrundZTaUcVpHaweVNsEoTelbvllbnLv/aymHI+IorSzT69r7pZ2NzFSslX2z6948AyBGGCg5Vqka9aT0j2YRZG1y9kG9SECnyx6wImrgGmvdbWzenQmAnuOeDACUO1vKuQSWr9q+B+a+84OnwJ/W/ktUriElo5LV6ggdybILnO2ohwmAGAGgsRm++hUp/fPNAiy4VtoudUge5N8PQO/dr1uH8UlFpGUT6MMA4HI93bV7W8UEQM+xWxuk+FKGVKNrf5x/7Iy0k7EDjMzUMXjlc1JyIRl7IfiRGZmFupYJgDgBIHnS6REZe03LqCBPQk+fwxmaRAv0E4HeK17EhKLy4ZMDZEtZaynlOb8USYAJgCJBKrzNJQEKL+VY6D6VWncRPm4UCix0+q5Sq85S8kkvXxlpGlenPjnRFiYAcgRgyN0bpPSQ7JQ2ssqOPUULzN6tR4yA8yTg1o0Yn5gkLZ8An0i5Tzop9LcxfSsmAHoNP+UvOBeg7FKGU65hC8w5+J20Y5F1TFaUz9pwQEo2JOMuF9/iSdmYlTcTADkCQEtRparXldJHslWz4xbq+rxjep0MICLQ9eq1GBcfLyWfIJ/4NacRVgNcTADUyFHFXSgxk7IQv6Vr1kc6qhTKSXjhuwZDJ0o5FNp8JXMEywsy9PeBCYAcASA59rr2Pil9JIAbs3abEnvV7WQAkYD2S1dKyyeIBLzPgYLkYYcJgLwMVdyhLAB8GKTgwgZDscZnbPtYiTPxg4RO77N2/h8mSG4woqyHOvXJybYwAZAnAHlHf8HUMpnCNku2X7v3MGU6OXP/71odDyQS0GLWtVLyCeEfdzqUkE6Fz9fiHkwAnB+GJADYHkK5hYwltUw5nPraaWWOxElgCld327mXC8nGL2MiDzN3fOppGYWTXajvmQDIEwCSa4eFy6T0kqbJp215X4le+lIIa5I90L8fgN4bj18oJSO/DQe8P+G8C3dvC5gAOD92qwOUWco4aFp74vOHlDiQUEChw3f0pJVSqqyUnGI56l+oMWQCoIYA0Hn+pJQ0Kd1sMWWBMvudT9kDdckZsPPvzYl1Bk2VklEIf7nQeTfuzhYwAXB23OaHUGYh40hMTsExT2xX5jxCAYUO31EudSmZxcV5JgeCqvFgAqCGANB4XDB5vpR+UlRKlRt3dcsZQLMAlEWwWtdhUnIK8gF/AkAXZ125O2tnAuDcuPUGgLNBiixkFHTMhgKSqAIEne9TpnYjIRn55Vyz28CYkJOZMWQCoI4ATN/6IcYnJErpaNdLb1Oqo3MO6RUpkEjA5K0/YMVWPaTk5Lfp/PcvAKCic+7cnTUzAXBm3OoCwHdBCixkDLRuOOC2dUodhhnwsPPaEWteF5JRoJxV7bS2s99W18UEQB0BoLGqN3CclJ5SdEs6Wqhy3Gfs1W9T4MQtX2NGw9ZSsgq0bQCgxEG0p4pfBiXABMCgoBReRjkU/hmkuMJGQAlJVDoKne9VvUs/YTmRvCkXgs79c6ptTADUEoCsDQel9JR0laJcqtSHhafO4bTdv2l3MmD8K59hiWr1peUV4E/vVuirPX8rJgD2DnECALweoKxSit9o+BSlTkKlw1F9r6mvnpLOMjbormdiRl5m5M8EQC0BINlX7dBTyrYpyqWZMTRybd6JszhVw02BI9adwCLFSkrJK8inTrTXrbu3NiYA9o7ddUGKKqz0FH/ci/H9wzmyZlnzhGVFMi9ZtbbyadVwbXXb90wA1BOAEQ+9JqWvpLMTX3hHOQmYd0S/SIHVWQODAAAgAElEQVS0J6DPipdUZhA8AwDN7HXt7qyNCYB949Ze1aY/imE/a9d/lDsHXYGLiE5y8VJSDrXHP+6JGXmZHUcmAOoJAI1BRv1mUjpLJwrMjqWR63XLHEgEgP5a5yyXklfQw9UHAMAp66PgGxOAKAJS9HMaAPwrSEGFlJ2O+014br8ljsGI83DimoF3PC0kK7+8U0pneDYhkorxYAJgDQHof8taab21IlmVrvsBiATU6jNeSmZ+m89/X6/If3v2NkwA7Bna+4MUU1jJB6x4MqbAnwCuRrcBwvIiubfPuzrmZGaGGDABsIYALDj5O1JYbhnbH3LP85bobu5RPZcCJr35HZat30JKZkHynmyPi3dnLUwArB+3gUEKKazcbWZfaokzMAMWdl9LSx1xCQnCMktMTsW5e7+MObmZGScmANYQABoDOqUjY/8q8wME64SuSwGjN/wLU0qXk5JbgMx/AIDq1rt5d9bABMDacaMkP58HKKOwUtfqMRgXnT4bc0BGKXtl5EebB4MdH/9fEPCYABSUh0r9yH3nByxaXHyHO+WtsIrAUr4AHY8G0lLAgFXbMF4y4VeA36CkQfHWunp33p0JgLXj9lyAEgoDGUW/i9XUtWXqNBaWG8l+0sbDTADejQxwTAAiy0eWEDQbP0dKh7tfcadlOqzrUgCRgA4X3ysltyDfe5m1rt6dd2cCYN24TQlSQCFlTi5RWlmGMFlHZnd52uwoI0MiD3a32Y31MQGwlgCMfXKHlB5nNmppqR7ruhRAJKD+CDnyFOA//gCAlta5e3femQmANeNWDQBo7UnK8CEuDkeu2Wyp8esMWM0n5krJr9OSG2NWdmbGlQmAtQSAxoLC+8r4g8kvH7NMl3VeCpj81k9Y/oIuUrILkPtpAEixxuW7865MANSPG601vRWgdMLK22r6UsuM3gxAOHHt/OO/YnLJMsKyI/I0Y9vHMSs/M2PGBMB6AtB2zmXiugyALactsVSXc4/peSqAZgHGbvwYk0tI+IKCD2L3qHf57r0jEwD1Y7dEBfiXa9gCrTgDbAYYnLyWYqHLyLFy666WOkwnZaO6biYA1hOAKZtOSulzWtnyuPDkH5bq9KwD+iUMIgJAfz1vfEZKfkG+pL96t+/OOzIBUDtujQHgtyBlM624dHSNYt+rdvRuuh+depCRY69r749p+ZkZayYA1hMAGg8i9TI6Pez+ly3VaZ2XAogE1Bs2U0p+AbL/BADS1bp+d96NCYC6cSsCAEcClExYWWMdvOa8/YVUTvWEIkVx3v5vLHWWZgBW92uZANhDAGRjAtTtP9pyndZ5KWDilm+wRLV6wn41yDffqc71u/dOTADUjd3yIAUTUlQrA3/oDkT+9nW99DYh2fnlX7v3cMsdpb+tXnhnAmAPAZi18/+kglrZRWx1XgoYsmavqvgA5wCgjTr37847MQFQM26dAIAUSgq40jMr4dx9X8U8eGU0aC4lx8Ern415GZohJkwA7CEANCbVOvSS0u2e16yyXLd1XwpoNe8GKRkG+OljAJCkBgLceRcmAPLjRgpEx0uklDIuPh5HPfKG5cZtBhicuDZ783tScqSoa7GUJlnFGDEBsI8A9F3+iJR+V+3Q0xYfkaNprgDfpsAdZ7BCi25Scgzw1zEdIIgJgDwBWBigTMJK2WrGhbYYtgrAsPIeXS6+VViGNA6NR0/3vBzzjv7iCw87Y9tHOOWVEzjh2X04eu1WHL76FRx053rsu/xh7HHV3dj5wpuwXe5VviNkFI2u4bDJWKfvSKzepR9Wat0FKcBM6Zr1kTadiuow7U4vU7uh716VWnbyPeHSBs56A8Zgo+FTkOptmb0I6Rhch4XLkMaXUjP3uXENDrhtHY58eEtMZWqkiJ6U0VNU3vGJSTjvwLe26PiMvb/5duD7d+Lr9D5mwwdYVDJFeP4Y/AoAdeRhwJ13YAIgN24U6/87UWP2lyNHHMtH/gIJBQGTXy4i7wSEgfdzy+fcwz8izX5Q1LhBdz2DPa5ciW3nXu4jNDW7DcTMxq0wvXxlJAAQkYvOZWhtu2r7Hj7y4pbxkmlnvYFjpcZwwIonbNHx+SfOaksAiIx0v26dlBwDbGKbHAy4tzQTALmxuzdAiYSUMSklDae+dtoWg5ZxWnaUnbPnv1KbpIpVqKJXwqTTZ3Hmjk+RQhoPu+8l7H3dA76n4OZZOb4ncXpiLlm1Nialpgvpjqzu6VieZgy8voQz9L4XpcbbjtMAfnvXeUMgkYA6A6dIyTLABqbJQYE7SzMBEB+3JgBwNkCBhBSRnvT8xhbr7zQtLCPP1jMvckSWtLt7zNptPoCnNtAphLJ1m0hN9crIwe1la3Qb4Mg42mV/NNuXUqqssK4XSS+OFCnTjvYuOHUWs3f9FYxHpyUAf1uyNn+FxSrVFJZlgK18CwAZ4nDgzpJMAMTH7c0A5RFSwMwmrXHhqT9tMWQ7nIVsHbV6DRWSo38cJr14xDJZUmyCset2+tbXaT2bnsLKNbyAn94lN7/6xy74fcg9z1s2lqSnFFWv/62PY50+I3z7Fso3a4tV2nZDSh9N+ydGP7YVacxldTpc+WYT5krp+ogHX7WsbcFtnnPoD62XAvrc/oqULAN0b5U4HLizJBMAsXEbFqA0QsoXl5CAWRsO2mbEwUat2/95R36W2oxWtl5TaVnS5jraUNf/lrXYLudKrDdwnG/tvWixEkJjLKsjsVy+eKXqlpFjCjNdsmotQ2NKT+q0L6XpuNlIaXnppM6sXf+R1rVxT+0yVH84HaClErtsWPdjgTQbULPXGCl55suZZnQpmmvMvJgAmB/qogDwQTjDNPp9iykLbDNguxyFTD1DV22UMuDOS5ebkietM094Zq9vR3rjUdOQYg/EJyRKtcHo2PN1xo7MTt/6oakxNaJ/NLNA5Ft2DJKLl8KKLTpikzEzsNtlt/uWgHLf+cFUe0tUEZ+6ppghi06fNVWfEfmEuybniL7JgogAUMKgImlKiPrr5iHBvSWYAJgfu4tlnQft5jbrLMIZple+bzQyW9gpUwyFmW99EtYZ+sG+59X34nmw9+Buelm91K38iDWvhx1TEb0f9/RuTCyaLKxn0eRDelimTmNsNGIqkq7R5s9Ip3vazrtCqi1EYEXkIFpm+h59jwUSCWi3+A4peQaM7wDzsODOEkwAzI1beQD4MUBRhBSOpiBFjdCL5WgfRGqZckKypLGgtVu/XAqA/ejpvnV6Lx6dk9VBN5SnUxP+cVXxLrvHRERmdMSR9hfQyY9+Nz2KlBXQ/+ROCb9E7ukvQ3tRVMjF6D3yjut9LHDK9l+wbIOWUjLNly0Fdks0Bw3uvJoJgLlxW+M3PtF3OtNt1OBi5To6+y4qTypHMqUAQLQpj8He2PS6jLztKqvyCXfu/q8xIamIlJ6p6jft4q/SrjvSiRGZ0wA022C3j5i5X9+UwTQLMPihPRgXL7/EAwC55qDBnVczATA+bi1l4/1TxDUr1jXtdgKq62s1fakWjlmVg+f7yJMQCulMO/VV6RoFz/HiuEzb8r4yGRmR9YKTes8CEAloODpXxVh/DQAljcODO69kAmB83HbKOhAKzWrEyGLtmlLV66owWL6HRUfyZPVepDyFEVZpBwNWPOlJ/aAUwyrlZORecw7qfSww6/UvMbVsBRXjfZtxeHDnlUwAjI3bWBEnFliGAsMsOPm77cZqxKCdvIZi2QfKiT/LPz27XYZ0RE91vPvhD2zypJ7REUW77ZeOBWbv1jc4EM0CdFumhPD9AQC1jUGEO69iAhB93FIA4BMppxoX5wsiY7ehuqG+TouVpfb0pIOX0jsXzgjQ+vjE5w8pB7XJLx/zpH7Qkca5e79ULq9ovmPeYb1nAYgEVGrXV8WYPx4dItx7BROA6GN3pawTpqNn0Qwqln6n0Ll0TKpax968ac+FIC1rD+HKNxg6UUmQnXC2VLlNVxWAoN09KCNj07GzkKID2hUimGQ8bbfexwJHPn0KE4qKZ17M19NzAFA/Oky48womAJHHrTgAyMjIFw+eEsKEc0qx8n325n/60tNWaN4eIS5OOycaDpR0/p42ldLxSQooQ5EQK17QwUeqKBdBw2GTkMLNUprpDvOvQVor7nXt/Uib4Sjo0qhH3/QFQqIlmGodegmPBxE5erqmCIqUD4FAiI65Upjd3stW+6LnUZAmSktMbaHjcESIKcpi3X6jfKmK6bqJL7xjuY1Q23QeTxVto6iVJNuBdzxteayRuS6YBWg66SIVY74uMky491cZcPP8DkkAuFDWKJ1KUKMDsaBQxxTshI4rycoxFsoXSSuGpWrU88U1qD94AtLpiK6X3oYDbluHYx5/y5c1kmZPKKe8yhwStXoOER6fIXdvsBy4Vepyy2lLhPvqNh2koEd0RLbP9Q9aktfAtxdA40RBtAww4bUvsEixkrJjTrMADd0L8+FbzgQgvGwo5O9nMkZPR5no/LFKB6bzvejYFj0FUpjj4hWryRqdZ8rTkzptbKvUqjPWGzAGW0xdiF0uutn3lExJZygdtJORIWOJAJD90GxIrM1C0V4B2jBIhFLlUWTdEwURCWg55zoVvmR9eKhw7y9MAMKP3UwZ8KeyHRdf73nwpyfREQ+9hhTKN6V0hgpDc909KAQsATw9bdFTe58bHsKRD29Bml5XvZvdCgIYawSAZEhR+NrOvRxLVK7hOn2T9UtUnoJm0dJQ9uvvSvmohafOaZ0umAjAxC3fYEqZ8rLj/D8AoBTwnnoxAQg9nPEA8J6ModHGnLwjP0kZlxXOXtU9yYG2nnUxUlISGTm5qSxFkqPlDFq7pmyBdLac1q4pi6AquTpxn1gkAIFynv7mBzj0vheRTqTQ0ktG/WZIIXzdpJsybaWkRrQPI+fgd0J6PFvzuABEAtotuVPFeD4bGi7c+y0TgNBjN1rGoKhsj3/cI2RMgY5Jt8/0NNvzmlVYoVk7Fcak7T2SUtN9aYBpIx2BAmWQo2l6lZHpdBrbWCcAocaCYnbQDA5tpiOyRxsrKWCVikyCsr7FqvK0VNVgSJZv9sqfryCUbIK/c0N0wMnbfsRiFaVne2gWoFloyHDnt0wAQo/bQRkjo+ngSFnAgg1I5//9U/y0s9jKTGoy8hYtS095dCqhyZiZvpSutJQxY9vHniNu0fSLCcA5w2NOsz20uZUS+9Cphhpd+2OxClW1JbOitkF9og282ZvfMySbWZrnCKBZgM5XrlExTs+Hhgx3fssEoPC49RI1Gn85OgIVzenq/rsXp/hpuaJO35HY5eJbkVLD2nlmWufxZgJgnACEG0eaPqeTGp2W3Ii1egyWSvLj9yO6vNPmVdrXEmmj6vwT+ucIoGyBpWo2kiUBNAvQqDBsuPMbJgCFx+0NGcOj9UMz02fhHIoT35OB97r2Pk9M8VNWwPJN2+AFk+f7jtHF4pO9UR1iAiBPAELJmpaN+ty4BpuMmYFlajd0/cmDpJQ0X3wJOrkSqr8z9+mdKZBmAXre+IwsAaDyDxSGDXd+wwSg4Li1kgF/Kjvs/pdDGkcog9HlOzoW1DJ7MVIQEdn+O1WeNl3W7j3MF2yI0gu7fWOenbrBBMAaAhA8hnQkePjqV7DtnMt8sR4IUJ2yF9l6idBQYKlAO8s7/icSyOr+l9GojazcfwWAjILQ4c7/mAAUHDfa5SmsHDRVFmz0Ov9PQElT4m7b2BSfkIiZjVr6osrRcgvt4tZZzrq3jQmAPQQgWA9oo+GE5/b7oiXWGzgWi1WoIux7ZPyWTNmUUmV9xyln7fqPzwZn7NE7PDCRk353vqZCzhQi3vUvJgB/D2FdAKCIT8LKQUFwgo1ct/9pcyKFg81s0lq4nzIyki1LaWK9fLzSCX1hAuAMAQg11rRU5caZAToiS6dmxq0/qP0MAJGAiq17yvq/zwGgyN/w4c5PTAD+Hjda1xFWCgLUUAaty3dz933lO9Lm9nP7FBZXF5l6pR1MAPQhAKRTVdp2E/ZDMj5MVdkKLbr41tpp052uywH97npdhYwn/w0f7vzEBOCvcasIAL/LGICuwDRl00lsOm420hlfmf7pUnbGto+YALyrFrCYAKiVpywxbDP7Uk/YavHKtbDtwhWYtfkrLYlA6TrNZOX8jjth/+9WMwH4Sxa3yAAcnZml9TxZw1dZftxTu7B6l36u33kcOC7p5SpqJWOV4+XkvZgA6EUAKCphoN67/XOR9BLYePwiHLvxE62IQJcrH1Yh565/w6n7PjEBAKCshj/KGBmdK3fSgQfWnbXhgC84iUx/dC1bp88IbeQcKHO3f2YCoBcBmLv3SxXApN09aBayycSlOGHT51oQAYoOmJpRUVZOL7gP9v9uMRMAgItkAK9IenHhGNoqgYNyslO4Uh2znFGSoOYTc5HOD1PiHFF5UwY9lTLje/0FfEwA9CIApJcUdljUTuhkD52Oqd65r5YnfIqklcALpl+FWa9/6TgRUJApkDaO1/obUt31iQkAwClRQ6NydH7eSSChbF71B42XAlaZ/ocrS2F2yRENXbXxfFhkipQW7noj39OxRSdl7dW6mQDoRwAaDpssbCuUsMqvq3Q8j9IfU/Y/IzZm5zXJJcpg65zlOOmNbx0jAhNe/QITk6XjMdzkLtj/u7XfSgx48b9v49pPrSX6j3Qe3alNaRS8h1LwUhtk+qC6LGUWo2iC8/Z/c94J+Z0R5SIXrY8i+wUGHfHfk9/lwYsJgLwMVeshJd0StRWK65F35OdC9jf5paO+/AW6nQRKLVvBl62PpuSdODXQYOQ8YVnnjxEdCUx0IwruF1Syr93Y2RBtXinYf5/CUPAO1YYf7X4zd3yKzSbMRTp3K9N2lWUp+VH73H/gtC3vR5QHZRoTrZfC+kaTDf8uBmRMAMTkZqW+Tdp4WNhWyMYo10W49lGCr5EPb0GaZaDMl6I2qbpceoXq2OmyB3DK9p9tJQIjnzqpYgZ1aAh80f6rewUHcbP2PYvewCQA+Eqw/z6jmfDsvrBGFs74RL+nJ+qW2Yu0yciXXLwUNh07C81My5euWV/Y2VBMf1HZcbnIAMcEILJ8nNAfAukiacWE7aXHVXcbshcKqtX/lrVYrVMfbfYLlKhWD7ste9JWElC1yxBhWedjyIvRIUe/K7IEAXCZfl0x3SJibMKDblvY39NnfQlFaCOdTHtVlKVpeMp0NujO9Tj/2BlDDsbvPCnRkMwGwAErnjRVn79efo8ObkwAosvICT2q2kE8Wh0tD5ptM+0XoBNNGQ2aO+5ryF+Vb94Zh619xxYiMODerbJ9PgsAFUyjkMMFEgBgr0lw+BQASjjcbhXVP2ey3wUUZMg9z5s2MLMGOfH5Q1jxgg4F6pVps2hZinLY/Yo7cc6e/wr3mcIki9ZP5WjPg1n58fXGgI0JgDE52a1PbeddIWwzBOIy7fXtF5i+FJ3eL0APHRRDwI5gQmUbtBKWd75vu0QFMNl9j3oAcMaEc+5rdwMtqK+0TOS/klVrI03RyRhYpLLzDnzrOzbnZJIeikdO0+4USTBSW43+RjuRTehYgWvTMiooaYPRtsbadUwA9CQAlDlQ1GYIOM3O0oXSewpwRkcKKc25aFtUlEvLqITdrn3C0tmArlevle3j+xZglS237AIAH0QZKNr4N9aW1lhfydwofY2oCB0XX28NIJ0+i32XP4KpZTIj1i/T9mhlk0uWwXa5VyEFIwnlEES/qz94gnCfKL6BaL1cLjq4MQGILiMn9IjSB8vE9VC9R2nEQ69h1fY9hO04mu8x8nvFNr1wxJPHLCECk9/6CVNKl5Ptn2sjA6YBwG0A8K+ggaAp/0cAINN6XLathj1BfTQ+6HFxSBm7VDsE2vVbqWUn4+2Q2L8Qqu+UipSO6eUe/lF530hWpWrUE+4bBwCyFqCYAFgrXxlfUbpWA2G7oeO4MnWHK0vRRukElFMzlPFJRbDp5IstiR/QaEyesLzz/epjtqGYhRWVAoAOHgN9v7go7a/wIFdp112pUeUc/M431e6UMZGD6bv84fPBesIZvcz3OYe+l3qSGfPEdqUyl+mLF8syAdCXANBmPlF/1WTMTEvtZtob/8LmWTmOJRpLL1/Nl3VQZeyAIWv2Ccs7f5xoOd0LMXL8eOm5dzrBIDzIBJaqQICi5KWVLS/cFpl+VGjWDn0bGU+fVdafcHIZvVZ8hy0HALIenJgAWC/jcLYR7fvey1YL+4fMxq0st21qPy0XUhyQlFJlhdsq48uqdByIY1/4SNmyQKmajWX7MdFzqOmRDsUBwMeiykbJLOg4WzSjjfY7TbMTOxdth0w5ig9OgBytjSp/p6NFom2mEwgq28L3Kgx2TAAKy0QXPZn88nFh26Fw3AtO/Gab/VD0QYo/UKJKTeE2i/oJCivc48b1SkhAq3k3yrZ/o0fw0nPd6CaqYFSONrLJOobx6/dgyWp1ZBXMVHlaXqg3cBxOfOEd6faL9J/qFpU7RT0UqZPLGAc1JgDGZWW7Xp0+i3QiR9R+6Cix3W1eePIPHHj7U5jZqKVwu0X7W2/oDJy45RspIjDm+Q8xLj5Bpu2/8TKAntxhjahiUTnaBStqTGQU7fOutjV2f2LRZGw2fk7UEL2ifTJaTiazWY8rVwrL3Gj7Yv06JgAaE4B3zyFN5Yv6rd7XPeCo/Yx65A1flEHR9ouUK1G1Lg5+aI8UCaDTBiJ1B5ShIHv80kgCKQDwY8AAmRrg9HIVhc/+Z29+D2nNXbRus+WKFiuBbWZdgrN3f+6o8ROw0nKHzFEmSiEc6wBtdf+ZAOhNAGQyA+oyg0Z2bGcsAdo71Gru9Thl+y9CRKDLlQ/L+usXNMI+bgoATDALpIHXt5q+VAiIiIHblXCDMgM2y5onFbFPNdjQkaFAOZr9rAOJUS0T3e7HBEBvAtB56XJhG6IHD130jWZBu11xL9J6vVk/IHp9+RZdccyGD0yTAFpGSEoVz8UAAL8CQDFGXn0k8KqoElE5Co1pxpAobG6tXkNtU/QaXfvjlFdOmGqjmf6IXktRxETlTkGJROvlcsZBjQmAcVk5oVdD73tR2IYSk1OQgNeJdoeqc+Gpczjh1S+w4Zhc25ZDixYvhd2vW2eaBNTuP0lY7vk+b7w+8BfbLaEgR7+LAlG5hheYMiA6t27X8b4ydRpL7U0IZaQqv5OJZ16pdRdTclfZ7li6FxMAvQkApdkW9V1Ujk4S6KTPM/b85gPj4Y8fwUpt+0j1zYxc6gyaipO2fm+YCPS78zXZtm2IbdjVp/cDzChK8LUUIc+oAfW5cQ0mJBWRVZyo5VPLlMOe16zSit2HklHdfqOi9iVY3v7/m46bbVjuoerm74wBGxMAY3JySp8o7wgdQfbbhdn3IXdv0MqO5r7zRwEQ7nXzBixexZ6TURmN2+K4F/9doP6wgYR2nMG0zCrCcs/PsZOuDwzGbkvuMGs0/usphe3s3Z9FNSAyUton4C9n1Tut81M9FEHQKYdkpt6ydZsIy4QyEJqpi68VAzImAGJys1PfyjVsIWxHnS+8SSs7yjtxthAAT972I7bOWY5JacWF+2nU56aXr4pDHz1QqA2hiEDTSRfJtscr+XNczR5OGlWO4OuMbKKh4EC1egyWVZSo5SkojlNn+UWcne/JpWhy1H4Fy9z/Px0hEqmXy5gDNCYA5uTlhH41GJIlbEdWhwQWkUf27l9DAjA9ndcdlI304OX3A1a80wY/mnkIBfqB3w16YLdsOx51NXJ6oPGVZRSow8JlEUFoxraPsGy9prJKErE8BQKhdLo6beYxYvSya5ezdv0nouyNtIGviQ5uTACiy8hpPaIMpKJ+rErbbtrZ0awDv0cEXzrHn9m0g3CfjciKSEabvFsitmPqjjOyGQI/9wCGuroL2UaUIdw1kSJpjXtqF9JafLiyKr6v3qUfTt/6oXYGbMQhDrv/ZWHZJBcv5co+G5GLbtcwAdCfAFDeDlF/kl6+sna2lHP0z8jAu/OvGYKuV6/FtIxKwn03IrO6Q6YjpQIOfPIP/KzgNEBTVyOoyxu/zogShLomPbNSWMPpd/NjSLG2Q5VT8V1K6QykI3S6gYWZ9sjkAKjYoqOr+25GTk5fywRAfwKQvfmf4r4mLg4pTr/TehZY/8LT58ICbiD40ucJmz7Hql2GiPffQPK3Ci27++oJrpv+77bsSdm6L3Q5hrq2+ZT85ytRQG4yZkZhozl9FtvMvlRWISKWrzdgDM7d91Xhut/V31EFGjnJT1z21qYyDWxnrH9mAqC/Xcnup5n04hHt/MmMvX8dBwwFuqG+a7fodkxIsu6hi04ijFh3vBAxyXrtv0iRBUV9GQC84VoEdXnDW0oM2l/pcgNB9/RZX2x9mXtGKktr/X1ueEg7QxUFyEqtOgsbTbfLbveMHETlZ1c5JgD6EwDSBZlQuoNXPqedPQUfBwwF+sHfDXl4H1Ks/0h+VOa35JJlceijBwuRgPIXdJGpk5IDpbocS13Z/EtFlYGm9ymO/XknbDH4U7Chqa+d/ru+QOLh0s+0jCEq/xFrXveULM7rkYZjyQTAHQRAJqsmhRPWTQfnhzgOGAz4of6fuOVrVLAuH9Y3JZfKwGGPHSpAAhSkCO7vSgR1eaO3igJQtU59/jYYK8E/Lg5bTF2I84//+nd9GoKEWedBSxiisqdyM3d86il5mJWfndczAXAHAaATSaI21Xj0dC3tadpuc8sAgYSAEvZIxusPK08iAcMfP3yeBNBnUdnnl6NYNPyyUQJS4X/PB6GxEPzpCXn46le0NExZABq7bqewwVA2Q9n6ubxxUGMCYFxWTuoVTeOLglDl1l21tKloxwEDAT/U5xHrTmCZus2F5RJJnimlyyGFK/bXm16hukw9p2zEPq4KAKTC/9IZ9kUWgn/lNl3Ry+fc+1z/oLCxVGjeXktn5aTzt7JuJgDuIABTXz0lbFOUztxKHRK9t9HjgH4QDvU+eesP2HB0rrBsIivirAQAACAASURBVJOATBz+xFEfCag/Yo5sHVUYme2TgHD439K1GlgK/s3Gz8EFJ3/X0iBFDTm4XNu5lwsbS+NR0zwtm2BZOf0/EwB3EAAKBCaTZyTvyE/a2RVlBwwF6iLf9Vz+LBYtUVrY74QjAillyuOIJ49h71tekL13ln3wxzXRlIvQgLXMXmzJbn+K49/jH/doZ4RWAFDDYZOFZE9jFi36ohXtjeV7MgFwBwEgHS1ZtZawXU3aeFhL3zPtbfF9AMFEYcyGDzCzWSdhGYXDjNSyFXDoI/sxoWiKzL3vZli2RwJS4X+tCO2bXKI0jnr0TS0N0Arwq9Kuu7Ch9F3+SMzIyQrZm70nEwD3EABayw8HUtG+H3TXM1ra1cz9kcMCB4N8tP+nbP8Zm025RFhO4eSYmlERS1SrL3PfQ/bAH9cyLdwgOvF9mdoNMXvze1oan1mwMHp9yWri6T05CZC9gMQEwF55G7WhUNfVHzxBGIA6Lb5BSx8kEg8gGgmg3ztdthpp1tUJnx+mzj9VxwMoAwB1AaA+/xWQwcYwA2C7MlA63PHr9+CUTScd/fNtODx91jYHkCiRBTD79Xdta2coJxtr3zEBcA8BaD1TPD1to5HZWtpV7jFjeQGMgH7wNbRun5icZrvfj4A/XUWfzxMAoDsA0Oa2fwIARRfSqWPcFs3HgzYQ0Rpize6DcNCd63HBid8scQhz9vxXShd0i1vudULABMA9BKDHlSuFbYsic+qoy2byAgQDvJH/B63ehRThTxO8vESEAIwCgHc16YAuguR2SBIOymRIu/VVA27WhgPCY5NcsoyWTkpHx6mqTUwA3EMAvJYV0K/DKjcChiIFFC+gWKWawn5JIfa+aIYAZALADoWV6yAAboMkcKvWh9I16+OEZ/cpA14ZJ0Xxzv1Ogd/tASYmAPbIWYU+T3huv7D/pIQ2FNtERTtU32OW4o2AoUjAuBf/jaXrNBWWnyK/+6VRAtAMAD5RVKnTneb6NQP9YL3yHVG8cqUS59D9yruEx7tmt4FK2qDaQXn5fkwA3EMAZu/+TNi2yOZ1zTJq1UbAYCIw/uX/YKmajaVkGOw7Bf6vHY0E1ACArwVu7HTHuH7NgT6iTsXFoYqjQq1mXCisB03HzWYCYHMuCCYA7iEA9AQvEwxoyisntLSvvOPWbQQMJgHjXvoUS1ZvIOyjIvpQY/5/UiQCkA4AxxVU4mQHuW5jiqCdnBKTU3ynFmSeeGWylnVcdJ2WDkpGHrqXZQLgIgLw7jksXkk8Jv3ox7ZqaV9WbwQMJgFjN36MxauIH1WWxOe7IhEA4RC2ko3SDoy4P86c8kgvXxnnHfhW2FFUbNFRWJc4CJD9YMQEwH6Zy5BC2s0v6hsHrHhS2K5l2mykrNUbAYNJAEUNdGhj4LZwBICm/n8XHVwu5wxgelHuMmeGi1WoKuygYilaohGnaMc1TADcRQBkZti6XXa7tgTAjo2AwSRg9LPvYVpmFWF/Jej7vwpHAFYL3tDuDnB9Lp3iN6Nfwx/YZNpZLDz1p1T0LQ4CZD8YMQGwX+YyxK7V9KXC/rfNrEtM27RMW82UnXv4D2WJgYKBPtL/Qx89gEmpxYRlasanBlxbPpgEUKAfYgZ2N4TrY5mH1AGRpYCZ2/8d8l5G9Vp1TAIzDihWr2UC4C4C0O3yO4RtTGZmz2r7yDt+1hECQOSg180bMC4+XliuRv1bwHW9gglA54Af7WwI18UEIKwOmHUY457eHfZe0fQ7pVRZbZ9OrHZ+Tt6fCYC7CMDglc8K21iNbgO0tTG7NwIGzwq0zr1JWK7RfFuI3xcGE4AlIS6ys0FcFxOBkDpgZilg6KqNIe9hRLczGjTX1jk5CdBW180EwF0EgHKLGLGnUNdkNm6ltY1NV5gaOBjgjfxfd1C2sGxDyTvCdw8FE4AVES62q1FcD5OAQjpgZimg7/KHC5U3qteUo8BqsOP7FwY7JgCFZaKznszc8amwjZEt69w3JzYCBhKDydt+xPIXdBGWr1FfBwD7ggnAkyYK29FAroPJwHkdMLoU0OXiW8+XMavPzcbP0do56ew4ZdrGBMBdBEBmoy0FEZLRFavLzjnkzEbAQBJAIYOTS2UI+zGDfu9nAIgLJAEvGCxYqGGVyqZhvcol+Y9lEFIHypZILqQzIrpmZCmg7ZzLhOvquPh6rZ2T1c7PqfszAXAXASA9kTlqO3f/19ra2TyHTgIEEgD63HO5+D4LE76Vjv2ffwkTgOf/0R/x9Xn8xzIIqQMfPDIR05KThIHZr9BGlgLoKd5/vdn3Xtfep61jcgqc7aiXCYD7CEC5hhcI29mUTSe1tbPcY/aFBA4G/eD/6w6ZLixjg75v8Hn0BwAmAAzgIQFcBbm7a5549LBAZY62FFBvwBhhoxl4+1PaOiY7gNipOpgAuI8AVGnbTdjORq/VMxww6f/8E84dBQwmABO3fI3FK9cWlnOg3wzzucBJACYATAAsIwD/e20edm1aUYkyR1oKqNqhp3AdIx58lQmAzYmAyOkyAXAfAajVa6iwnelMtJ0+ChhMAgat3ikV2CwM8PvHjsL+n38xAWACYBkBoFkEO5YCyjVs4Vdu0+8UQ8Cpp+BYrpcJgPsIQMNhk03blx+MKJCQzvqevetXxwICBRMA+r/ppIuEZe2XeZj358+jPy8B8B4GFVP90e6xMsfapQCZTGW6pirV2VmqaBsTAPcRgAsm5QmDUpvZl2pNAKbv+U0rAkBLAakZamZPg4jAYSYA/NRv6VN/MCGweimgSHpxYcdE55tVABrfwxygMQEwJy8d9KvtvCuE7azx6Ola29nMfb9rRQBoFqDLVY8IyzsI9APv8x0TACYAthIAK5cCFpz8PVC5TX/OO/KT1o5JB8dvRRuYALiPAMjE26jbf7TWdjb7oPOxAEItBZRr3M60T4sA/v57FfeTAN4DwGTANjJgxVLA7N2f+5Xa9Ht8QqLWTskK4NXlnkwA3EcAel/3gGkb84ORzvkAyCbmvqMnARj84NtWJAxqygSAgd824PcvCVixFEDni/1Oxux7cskyTAAcOAFADpcJgPsIwKA71wvbWuU2XbW2tZyj+sQCCJ4JqDNAfPNlGJ84hAkAEwDbCYAVSwFj1+0UdkolqtTU2inp8rRuRTuYALiPAIxY87qwrWU2aa21reVpFAsgmACMfOqk6lmAPCYATAAcIQBEAlQuBchkAqTIZlaAG98zOrgxAYguI930SCYjYJnaDbW2tQWn9AkGFEwA6P/q3YYLk68QswCUBND34j0ATARsJwIqlwLqDRwrbBi6T0vqBgAq28MEwH0EYOqrp4RtrXjFaloTANJt3WIBBBIBCg4UAshFv1vPBICB33bg9+8FULkUIGMUFNlMJajxvYyDGhMA47LSRa9m7/5MFHAwpXSG9rY2/W29YgEEEgD6nNmsk7D8g/zkm0wAmAA4SgBULgUEKbdhI6HIZro411hrBxMA9xGAvKO/GLatYJtMTE7V3tZ0jAUQSAJ63vScsPyDxuMIEwAmAI4TAFoK6Na0kiqlNn0fimwWa8CrS3+ZALiPAJDuJCQVMW1nfvBZdPqs1vY2+4B+wYACCcDUHWcwvXw1Yfn7xwEA/s0EgAmA4wTA6aUAimymCyDGWjuYALiTANBUfgCQmPqce/hHre1tziE9YwEEkoDG4xeaknmYsfqFCQATAC0IAJGAu3O6qFBq0/focvEtWjskL5MCJgDuJAAlq4qnqqWgXTrrtK7BgAIJgMLNgMlEAvgUABMBx4mAU0sBFNlMZ4fk5bYxAXAnAchs3Mo00fY/hU57419a25sbCACRgfTyVYXHwD8WAFCRCQCDv+PgTzMA9PfhoxMxLTlJhWIbvgdFNvMyyOrcNyYA7iQAVdv3MGxfAWDjKzP5paNa29u8w/pGAwycBWg0boHwGASMSRMmAEwAtCEATiwFVGrdBesNGMN/DsggPVN882ellp14zBwYM7KV9HLiKWrHP/221gQg54g7CMDA+7arIADdmAAwAdCKADi1FBDAilUYFt8DgGXAMiikA6MeeUNvAqBxPoDAGYAp23/GxOS0QvI16cdGMAFgAqAVAXBqKcCk4cgaHpdncIxJHaCw3TovS+Uec8cMAJGB8s07y+rQTCYATAC0IwBOLAUwAeAndtYB63VgwIontSYAecfdQwCaZC2RJQCLmQAwAdCSAPBSgPXOmAGPZWy3Duh+6ibvuN4JgQKXAXrcIJ6aOX/cL5EjANcNRHwrj/+sksHWPMQ3cxHfyEHckqMlUNPTulV/TpwKsNshcn0MwrGkA90uv0PrGYD5GqcEDgR/+jx248eyMwBXyRGAFcMQDy3lP7tkcHAp4r7FiLsXIm6fj7g11zLwtQrUzd73nlxnAgTFklPmvjIJsUsHMhu1RMq/oetfg6GTsXb/ia75i0+UOjZ9HRMAu8DbqnoOLkF8e9FfszCbrXsaNwvcqq6npYDuzcSPi9nl2LgeBlHWAdYBl+nAzUwArAJmJ+5LMwR7FnluZoCXAtixusyxyk7Ncnk+JWKHDtzBBMAJoLajzr2LEbfleWaJ4OnL+2BcHAMhAyHrAOsA64AiHbiXCYAdYOxkHfsXI9JmQgs369l17+XT29vBirkOfvpiHWAdiAUdeJAJgJPgbGfdtE/AAycJcoc0iQXD5D4yALEOsA5YrQOPMgGwE4Sdros2DNLpAZfPBqy9qBcWTy1itXHw/dkBsw6wDnhZB9YxAXAalJ2on2YDXH5i4KPHJmH/1lV5XwA7aC87aO4b67eVOvAcEwAnAFiHOimeAAUYcvlsABGBK7NaYc0KxZkMsLO00lnyvVm/vKYDzzAB0AGMnWoDLQl4ZIMgEZlfX5qNpx8cj69ePwjXXdqb/1gGrAMW6MD47nW8BoSx2p+1TACcAl9d6qXYAR4iAW6f0eD2ey+YldfG9MZp7WIVML3W7weYAOgCxE62g0mA65dCvAYy3B99iRATAM/EIVjJBMBJ4NWpbh8J8H5uAQYWfYGFx8YdY8MEwDME4BYmADqBsNNtoT0BHtgYyEDiDiDhcXLnODEB8AwBWMYEwGnQ1a1+Oh3g8iOCDCzuBBYeN3eMGxMAzxCAy5kA6AbAOrSH0g27/Hggt98dYMLj5L5xkiEANbr2xz43rtH2r/f1D2Gny1a74q/jJfdhXHy8zMbEJUwAdABcHdvwljfyBzDAuA9geMz0HjMZAtB65kW46N1z2v7NP3EWp+781RV/Qx89KAP+VDaHCYCO4KtDm2hT4Bu8KZDBSG8w4vGxf3y8TADyjruHANAMgGRWwOlMAHQAW13bQJkEeT8AL4fwchDrQIAOeJkA5B770xVP/zRLUW/oDFkCkMUEQFfw1aVdb/N+AH7KtP8pk2Wur8yZAOixRFC6TjNZAjCSCYAuQKtzOzyQQZABRV9A4bFx19h4mQDkHHXHDMDELV9jfEKiLAEYyARAZ+DVqW28KZCngQOmgRm03QXaKsfLywRg3hF3EIBu1z4hC/5UvicTAJ1AVve2bOOTASodKd8rdkHUzWPvaQJw+A9X7AGo0XO0CgJwARMA3UFXt/YxCeCZAJ4JiGkd8DIBmPuO/gRg0tbvMSm1mAoCUJ4JgG4Aq3t76HjgW/Nj2gG6+emN286zDrI64GUCMOeQ/gSg180bVID/WQCIZwKgO+Dq2j6OFsgkiGcCYlIHPE0ADupPAGr3n6SCAHxG4E+vF0SDCTy/YhiirgDF7bJ+bPYuRtySE5NOUPYpisvzk7hbdcDLBGDWgd+13gMwYdPnmJicqoIAHMrHfyYATGKWipOFA0t4SYCfhJkExpAOeJkAzNj7m9YEoNW8G1SAP93jJSYAPEsgDvzBstu7iEMHxxAIuPXpldstP/PiZQIwbbe+BGDK9p8xvXxVVQRgNROAYBDj/+UJwa4FiJt5WYCBRh5oWIZ6ytDLBEDnREDdr1unCvzpPtcwAWDAlwf8UDKkkwK0SfANJgIMYnqCGI+L+Lh4lQAsOKl3IqDMZh1VEoA5TABCgRd/p5YUvL0IkWMH8Bo5L494Rge8SgB0zgTY5/ZXVII/3WsoEwAGe7VgH0meB5cgUmIhCinMGQY9Awb8JC3+JO1W2XmVAOToGgZ4xxksXaepagLQmglAJMDi36wlB5RqmAjBjgWIW/P+Wi7gvQNMDHimQHsd8CoB0DUKYOcrHlIN/nS/ykwAGOStBXlR+dJswX76W8x/LAM9dWDfYsQ9i/7a67JzASJlzKSlrjdzPR8bw6sEYLaGMQAmvfkdpmVWUU0A/gcASUwARAGKy+lJHHhceFx00QEibkQMiBB4bFbDqwRg5j79ggC1nHOdavCn+33pB39650iAujgNbgcDGOuA93SAgmXRqRiaIfDA/hevEoDpb+sVA2D440dURf0LJhF7mACwo/Weo+Ux5THVXQdoeWvXQlfHyvAqAcje9as2UQAnb/3Bio1/fiLwEBMA3R0Ft4/BjHXAuzpARIA2wLpwRsCLBGDhKb1iADQck+sHayvelzABYOfqXefKY8tj6xYdoOUB2kDoon0CXiQAeSf0IQC9b92IEBdnBfD77zmACYBbHAS3k8GMdcD7OkCnCug4rAuIgBcJQM7RP7WY/h+78RNMLpXhB2qr3qszAWCn6n2nymPMY+w2HaCTA5qTAC8SgLmH/3CeAOw4g5Xa9rEK9P33/QUA4pgAuM0xcHsZzFgHYkMHKHy2xnsDvEgAZh90ngC0zrvZD9JWvh8KBH/6zMcA2bHGhmPlceZxdosO0JLAFj2TaXmRADgdA2DImr0Yn1TESuD333stEwC3OAFuJwMW60Ds6gBtENyqXyAhLxKAabudiwEwccs3WKJqXT9AW/1+KRMAdqqx61R57Hns3aYDlEBLo30BXiMACxw+Alhn4BSrQT/w/uezAPqJAC8BuM0hcHsZxFgHYkcHDi7VKqSw1whA7jHnTgA0m3JJIDjb8bmuH/j970wA2JnGjjPlseaxdqMO0HKAJnsCvEYA5hxyZgPgBTP+YQfgB9bxGwAk+IHf/84EwI0OgdvMQMY6EFs6QBsDNTgd4DUC4MQGwFbzbggEZrs+H/ODfuA7EwB2pLHlSHm8ebzdqgN0RNDh/QBeIwB2bwBsM/8WuwA/uJ6nAoHf/5kJgFudAbebgYx1IPZ0wOFgQV4iAHZvAGy35M5gULbz/8V+0A98ZwLATjT2nCiPOY+5m3XAweOBXiIAuTaGAO548SqrY/xHIxNtA4Hf/5kJgJsdAbedgYx1IPZ0YO9ix5YCvEQA7NoA2PmKhzAuPj4aQFv5+xkASPKDfuA7EwB2oLHnQHnMeczdrgPbnIkP4CUCYMcGwK5Xr8W4+AQrwd3IvbcHgn7gZyYAbncE3H4GM9aB2NOB/c7MAniJAGTv/tXSJEA9rn8a4xMSjQC01dfcGAj6gZ+ZALDzjD3nyWPOY+4FHdg+3/alAK8QAKs3AHa+/EGMT0yyGtiN3n9QIOgHfmYC4AVHwH1gQGMdiD0doABBNscG8AoBsGoD4ORtP2KDkXONArMd1/0PAEoHgn7gZyYA7Dhjz3HymPOYe0UHbD4W6BUCYMUGwLEbP8bMph3sAHUzdZwOBPzgz0wAvOIIuB8MaqwDsacD+5fYugzgFQKgegPgwFVvYWrZCmaA2dC16eWrYmpGRUPXAkCo6x4MBv3A/5kAsNOMPafJY85j7iUdeNO+tMFeIQDZu9RtAGy/5C6MTyoSCnylvksrVxkHrd4pe4QwOxDwgz8zAfCSI+C+MLCxDsSeDti4DOAFArDg5Fklu/8nbf0erUrnS0/9I586iV2ufFiKRABAoQyAgSSACQA7zNhzmDzmPOZe0gFKFGRTjgAvEIB5h+VTAI9+7n0sW7+FLDiHLE9LCSPWHfeRlJq9xoS8Jsx0f/C1XwWCfajPTAC85Ai4LwxsrAOxqQNv5NhCArxAAGTX//vd+RomlywbDLZK/k8pnYnDnzjqA/8p23/GosVLydx3YyjQD/yOCQA7zNh0mDzuPO5e0oEd9sQE8AIBkFn/b52z3LLIfimly+Hwxw+fX54YsGqbDPhT2ZAJgJgAeMnwuS8MZKwDrAM25QdwOwHIPSY2/Z+1+Sus0XO0LCCHLU8zCsMeO3Qe/Kfu/BWbTroo7PUGlwDqBYJ9qM88A8DOk50n6wDrgBd0wIZ9AG4nAHMO/lEAZAloo/31XP4s0o58g6Br+rr0CtVx+ONHCrWjdJ2mpu8V0Mb3QgF+8HdMALxg+NwHBjDWAdaBLdbvA3A7AZj+9m+FgDYcARjz/IdYreswGRCOWjajYWsc9+K/C7WJ6g4Ac5HPtwWDfaj/mQCw42THyTrAOuAFHbAhHoCbCYDR439Ttv+C7ZbciUlpxUWA13AZIheT3vi2EPgTIel48SrD9wlDFLqHAvzg75gAeMHwuQ8MYKwDrAM2pAh2MwEwcvxv6KMHMaNxW1nwjVq+8fhFOHXHmZDgTwSgapchUe8RBvip3PcAkBgM9qH+ZwLAjpMdJ+sA64AXdMCG7IBuJgCRjv/Rk3jTSRdansGP0gO3X7oyLPAT+FNCoaTUYjIE4KlQYB/qOyYAXjB87gMDGOsA64ANEQHdSgAWnj6H4Y7/9bn9FSxWqaYM4BoqS6Dee8WLEcGfCEDfO181dL8IMwATQ4F9qO+YALDjZMfJOsA64AUd2L3Q8mBAbiUAoY7/jXvpU6zVZ7ws2BoqT0l9hj6yPyr4EwGoP2yWoXuGIQBnI6X/DSYBTAC8YPjcBwYw1gHWgT2LmAC8ew4XhfibHXT8r9Nlq7FoidIyQGu4bNXOg3HCps8Ngf/krT/IRv/bEQzykf5nAsCOkx0n6wDrgBd0gAlASPAnQjAt//jf0EcPYPkWXQ2Dd5inbEPlKUNg2wW3GgJ+evKnvx7XP23o3hHadVEkwA/+jQmAFwyf+8AAxjrAOsAEICQBoON/tLu/evcRCHFxsgBrqHzxyrVw8EN7TIE/EQCaLYgA7kZ+axAM8pH+ZwLAjpMdJ+sA64AXdIAJQCECMPnl41i7zyjbgJ/AmzL4Zb3+pWnwH//KZ0izBhIE4INIYB/qNyYAXjB87gMDGOsA6wATgPMEYMorJ7DewLEYFx8vA6imyiYmp/oC+Pin882+U/AhCfCnsneEAvlI3zEBYMfJjpN1gHXACzrABACnbDqJ9QaOsxX4CbRL1mhYKJmPWQKQ0aiNLAFoEwnsQ/3GBMALhs99YABjHWAdiGECMPXVU1h/8ATbgZ8C+zTJWoKT3vzO9JR/IEEYse64LPifDgXw0b5jAsCOkx0n6wDrgBd0IAYJwNTXTmODIVkYl5AgC6Cmy5eu0wyHrNkrBfx+EtBs6qWm6w9aLrgkGtiH+p0JgBcMn/vAAMY6wDoQQwQge/M/seGwSY4Af0LRFGw193qc/NZPSsCfcgJQSuAgQDfz/zkAqBwK4KN9xwSAHSc7TtYB1gEv6EAMEIBJLx7BhsMmOwL8BNDlL+iCI9adUAP8+Wf/+9/9hhmwD3XtlmhAH+53JgBeMHzuAwMY6wDrgEcJQN7RX7Dv8kewQvP2ocDPlu+KpJfADhffGzGDn3863+x73cHTZPtgOPZ/MBFgAsCOkx0n6wDrgBd0wGMEgHb0t5iyAJOLl5IFSKnylJp37AsfKX3q95OEiVu+wSJpJWTa9xMApAYDu9H/mQB4wfC5DwxgrAOsAx4gAPOP/4oDVjyJlVvbE6430rp7yeoNsPctL1gC/H4CoODs/8NGwT7UdUwA2HGy42QdYB3wgg64mABkb34PW824EFNKZ8g8DSspm1wqA9svXYlTtv9sKfjT5r8SVevKtrlbKGA3+h0TAC8YPveBAYx1gHXAZQRgwcnfcfDKZ7Fah162huoN99RPu/ubTrpIKIyv/4nezHuvmzfIgv/HABBnFOxDXccEgB0nO07WAdYBL+iASwjAjG0fYdu5l2NaRgVZAFRTPi4Oa/UZj6Ofe9/aJ/78Xf9+klChRTfZ9l8bCtTNfMcEwAuGz31gAGMdYB3QnABU69QHa3QbYHu0vnBP/PR9ZrNOOOiB3bYCPxGAoY/slwV/Kl/bDNiHupYJADtOdpysA6wDXtABzQlAJCC2+7cS1ephjxvW2w78/qf/2v0nyRKA3aEA3ex3TAC8YPjcBwYw1gHWASYAUUG1VK0m2PXqtThl+y+Ogf/YjZ/Ipv2lfo43C/ahrmcC4AHH+cWWeXjw8Um455EsV/99umm2KSf+4875uO8xd/fZzJiZlQ8a0O2v3szBA2sn2qo3VN/7L8zAb7bl4rkDS0yNuZE+xew1TADCEoCyDVpijxvXWxLIx/9Ub/RdQdz/fwNAYihAN/sdEwADTlI3h/L73kX48NX9sFXD8phSNDGs0ts9raaivqrli+PSSa0jAsOGW4di60blMSE+zlN9NyK/GpVK4CVT20aUTzR9fXfDNBzWrTaWKp7suPzi4gBLFiuKNSuVwJYNMnFkz7q4YlE33PtoFv6xbzGTAzP+iQlAIX3ObNoBe6940bGn/WBSQFkDk0uWLdROI7YfcM2FZoE+3PVMAMwYmAbXbr1/DFYomyarQNqXnzSwIZ4N8XS47oZBMQn8AcbvG7vsIY2FSMANuZ0xKTFe+/Gn/hK57dKiMl6a3RZ3PDiOyUA0/8ME4LxeV2zVA/ut3KwN8PuJAIUTDrZlk/9T5L8S4QDd7PdMAKIZlUa/kxNMS0mSVSDXlF99RZ8CTv+fG6Yz+AOcH7+7L+5ZQD7RnvyfvXnI+bImnY4W5VrUz8THrh3AMwPhfBITAKzSYQAOvH+HdsDvJwAUXVDS9u4wC/KRrmcCEM6YNPw+Fp78A42DHH4gqOWNayFrPJ4qX7daKfzfwaUFZBQor8DPNJuiw5R/4PiKfiY7uD6nM369NcdQ3wPl4OnPMUoAklLSsP6wmTjssUPaAj8RgN63t1gEjAAAIABJREFUbpT1P2cBoEYkQDf7GxMADYE+lJM69Wy2rPK4svzhJyf7nPwvuxdgsdQiruyDKNAZKbf53tGGQPDIuimekx3pw6PX9DfU/1A25bnvYowAlKxWB7tddjvO2PmV1sDvf/rPaNha1gafNQvw0a5nAuASAkCb/owAgteueeL6gT4H70UAUzFWtKZvBMjWLhvgWf0Z26c+fvdWniE5GJGVa6+JAQIQFx/vCyY0/IFNuOj0WVz07jmctvs37QkAxRxQYO8dogG62d+ZALiEAKy6tLcKBXLdPW7M+wvgXrx9uOvarsDgo/Z55vCmhoDP6wSSTo9sfyDGNwp6mABQSuCW2Ytw2pb3faBPwE9/OUf+1B78KeZAyRoNo9pyFH+xxyy4G7meCQATAFnFtLT8gvEtfAB332WxSYCiOAXs16EGE4D8jZHx8XF414U9DMnDtU/5kfyVBwlA2XpNsde192PekZ8KAL+fAEzfo//Tf+crHlLhI0cbAXSz1zABiGRQGv0WqzMA187t6HPo628arMKIPHePrP4NDAGe12cA/ESJ4grQaQdPAnw0f+QRApBSqiw2z8rB8ev3hAR9P/jnHtP/6X/yth8xvUJ1Wb/zEQAkmAV3I9czAYhmVJr8HqsEgICLnDlF/PM7eX7/+yjg5dPbGQK7WCEApBvJRRLx7YcnGJKLp4iCiwlAYtFkrNtvFA5dtREXnPgtIvD7CcCMvfo//bdbdLsKv7XICJiLXMMEQBOAj+aIYpUAvLV6rM+Rf/nGPBWG5Ll7+AlSNP2JJQJAJKBsyRRfuOFocvHU724jAHFxWKl1F+y9bDXOO/CtIdD3g3/e8bPar/1P3PINppTOlPU53wFAMRFwN1KGCQATAFkFtaw8bewKjAbYp530VJplbXViVqJ4WhH8Ycd8Q0+6sUYAaDzqVC2F32+PodMBLiEApWrUww4Ll+H0Nz8wBfp+8Kf3mft/154AtJy9TIW/ucwIkItewwSACYAKJbXkHv4TAP6nNDrz7gTQ6lrn4omtDIE/yS8WCQCN2z9mdTAsI7+eufZdcwJAT/sTntkrDPp+AjD/pP5P/xNe/QKLFCsp66++AIA0UXA3Uo4JABMAWSW1pHyT2mVDnu2mJDa6ArKd7aKnW8oCaRSsYpUAlEgvGlKPjMrNVddpTgBaz7xIGvyJBMw+oP/Tf9NJF6rwU/ONgLjMNUwAmACoUFSl9yDwpzX/UM6XMsSN6FFHaX12AreKuupVK43/eW1OSPmEkhl9F6sEgOQdM7MAMUAAFpzS/+l/7MZPMDE5VdZHfQIARWTA3UhZJgAxRgCqZBbDKYMaafl31cz2uG31WPyNHFmEcaEc8vsfm+hLG0tZ8VT2p0frqrKG6ytfvkya0nZRH6+Y0Q7fvG8M/rpnYUT5hJKdKgIgqz8T+jXwxS6gVNaVM4spkXU0UhUzswAxQADmHPpD+7X/+sNmqdDrbCMALnsNE4AIQBPKkTr1napTAEO71TYNHk712Yl6n18xTIXxYteWVbSSsyoCoFp/PnllFq75Rz/frA4F8okG5qK/x8QsgMcJwMLT5zB7169aE4Aha/ZiXHyCrB6/a9W5/2DCwASACYBWQOUE6AfWyQTg7xgDocBWNQEIlP3JZ7KR4vqHqlf2O5ptCKzLk589TgC0f/rfcQYzGrVRob+WRP0LBn/6nwkAEwDvO0YTY8wEwDkC4Aflx68biEWLSD9FFXLE778ww9u67mECsMAFO/87XHxvIZ0TIK7vAEBcKLC24jsmACbAwe+gnHjnJQBjee9lx4YJgPMEgMZw15rxSHEOBBxo2DIPXNmXCcDr8xAl/m6c1i6sfKONlcwpgFman/sf/8pnWLREaWHZBMiuvxVAH+6eTACYAHjbKZocXyYAehAAIgFPL1eb/4E2IMoSRK3Le3QGwA1R/+oOnqYC/HeEA2qrvmcCYBIgnHIAPAPAMwAyuqfrJsBofZo7qrkKx+q7R8WMdCYAEk//NHPgxAyA7hn/Bq3eiRCnZANrZ6uAPtx9mQAwAfC2UzQ5vjwDoM8MAJGDb7flYmpykjIS8N7z072r7x6cAcg5onfGvynbf8EydZWQ1E3hQNrK75kAmASIaE8sVv3OMwA8AyCjW26dAaA+zxnVTBkBIDnIyFHrsh4jAHTsb9puvTP+tVt8hwrd/AMAGloJ9OHuzQSACYB3HaLA2PIMgF4zAAS4x9dPVeFkffe4Ibezd/XdYwRg7jt6B/0Z9+K/sUh6CRW6eWM4gLb6eyYAAiDhxFMAzwDwDICM3rl5BoD6TZEVA3ZKC39eOqk1EwCJfQB27QGgkL+6B/2p1lVJ0LCPASDVaqAPd38mAEwAvOsQBcaWZwD0mwEgAjC8u5r8D9OGNvGuvntoBmCW5gl/ulz5sDAJDSKyQ8KBsx3fMwEQAAmZJzHRsjwDwDMAorpD5dw+A3Dzgq5KHC5lk5SRo9ZlPUIA5p/QO+HPmOc/VJHql/R5ox0gH6kOJgBMALzrEAXGlmcA9JwBWH+TmpgAXVpU9q6+e4QAzNir98a/Su36qiCjvwBAtUjgbMdvTAAEQMKJpwCeAeAZABm9c/sMwJZ7R6twuti4VlkmABrvAcg9qvexvw4X3aNEDwHgEjsAPlodTACYAHjXIQqMLc8A6DkDcOiJSUocr6eDAXlgBmDa2/o+/Y965l1MSklXoYcnASApGjjb8TsTAAGQkHkSEy3LMwA8AyCqO1TO7TMA/9o4Q4XjxZLFinqX8LqcAGh97G/HGSzfvLMSHQSArnaAu5E6mAAwAfCuQxQYW54B0HMG4KOXZipxvpXKeTgcsA0E4I45nYTHoV3uVbjo3XMh/yjbn87H/trk3SLc76Bd/48aAWa7rmECIAASMk9iomV5BoBnAER1xwszAJTKN8iRCv3ftE6GdwmvDQRg681DheROYzformdCgj+RAp03/g1/4igmFE0R7neA3n4LAOXsAncj9TABYALgXYcoMLY8A6DnDMCBtRNVOGDs3qqqd/XdBgLww/MzMC4uso4EAF6BMZu25f2QBGDuYX0j/k1641ssVatJgX6E65+B76cYAWU7r2ECIAASMk9iomV5BoBnAER1xwszAK/fM0qJEx7Vqy4TAIlTAJQRsEuTiqbHolSNerjo9NlCBGC+5lP/dQZMNt3XMETgOTuB3WhdTACYAHjXIQqMLc8ARH66G+pQIJ2nbhykxBHPHtnMu/puwwwAEYD31mRhatFEw+MRl5CA49fvKQT+uk/9d7zkPsN9DAP6/vKfA0AZo6Bs53VMAARAQuZJTLQszwDwDICo7nhhBmDZXPHNZ4HO+bJpbZkASM4AEAm4f0E3w0sBHeZfExL8dd71P+ThfarW/YkE9LcT1M3UxQSACYB3HaLA2PIMgJ4zAAM61vQ/TUm9r1jUzbv6btMMABEA+nvzpqFYPbNY2PFILZOJg1c+FxL8dZ76z3rtv1i8cq2w/QoklAY+rzIDyHZfywRAACRknsREy/IMAM8AiOqO22cA/ndwKZYunqzEIa+7YRATAAUzAH4S8NMLM/Ge3C44tU99bFStNJapWRcbDMnCrpfehnP3fhkS/H1T/3v0DfhTrav4SYcgQvCek5n+jJAJJgBMALzrEAXGlmcA9JsB2PNIlhLwJ+f86abZ3tV3m2cA/CQg8P3S07+EBX1/DACdp/5b596kStf+BIA2RkDYyWuYAAiAhMyTmGhZngHgGQBR3XH7DMCEfg2UOOW61Up5F/zJj7mAAPgy/e36Fafu1O9vwKptGJ9gfHNj0NN+sI5e7SSwG62bCQATAG87RZPjyzMAes0AfPb6XExKjA92rkL/zxnl4RMALiEA0zWd+h+78RNMzTB/vDEMCdgPAIlGQdjJ65gAmAQImacwmbKqZgCqVyyBdBRK5R851uV5XXDHg+PwN3oKcYlMQ7WTCYBeBGBEjzpCYB/KMVNK4VBj7pnvNJ8B0HXqn4L9lG3QSpWeUZrfuk6Cupm6mQC4BKxUEYBQjlHld83rlUN6anOrU2UCoA8BuPPCHqqcsu/I2ldv5rhWLw3Zk8YEwDf1r+G0/9QdZ7Ba12HK9AwA5poBYKevZQLABECl8vvuVa1Ccfx6qzudLRMAPQgAPa0XSUpQppuezgHg92EaEwBdp/6bZC1RpmMA8KTTgG62fiYAfuPR/N0tMwD+2YSrZ3dw5dMWEwDnCcD1OZ0NB5nx61u0d5pNMPQUrbkfiNgHTQnA7IO/a7npT2GkPyIRxwAgzSwAO309EwCXGLzbCECZEil45u2FrnO6TACcIwCvrhyJ7ZpUUPlE5rtX5cxirt+bEhH4/T5MQwKQc+RPLcG/752vYnxikipd+x4AajsN5iL1MwHwG4/m724jAPREtu+xLCYAmujVw1f3U+LsVOYC+H3vItz+wDi8amZ7bFE/U0n7Qs0EkO0YAlBNxkq4rZoRAFr3z9bwyN/wx49gkfQSqvTtfwAwSAR8dSjDBMAlRu9GAuDGqGs8AxB5BoBmdrq2rCL816FZRaxfvTSWLZmCCfFxqpxw2PvQqZc/9i1mAqAw+l9g4J/gz/5AQAtPn8Npb+sX7W/cy/+HxSqpCSudTzav0QHIRdvABIAJQFjnGeppysx3N83v4jrHywQgMgEwM/46XPvQVX1dp4NemAGYuU+/df9JW7/Hck3aq/R3mwAgXhR8dSjHBIAJgEqDKHAvmnYWdmYOjQsTAO8QgFYNy+Of+2Pk6Z/sRZMlgDmH/tBu3X/yWz9hlY4DC/gnSYL6AQCU0gHEZdrABMAhoDELjG5cAti1ZjwTAE30S9UeAEmnqdIBR7xX7Sol8b9b5rlO/8z6hQLXa0AALjz6k3bgP2X7L1ij5+iI+mJSr88AQDMZ4NWlLBMATRx0AUMO0Sa3EYAS6UXxx53zXeeAeQbA/TMA5cuk4YcvznSd7kXzAVF/14AA5Oz6Ti8CsOMM1h2UrRL86V4THQLwcgAwDgBWAMBmAFgNADMBoJ5oe5gAhADbqIbmQBm3EYDLp7dzpQNmAuBuAlA8rQgefnKyK3VP2u9oQADm7dSLADQck6sa/O8SBVvJcpMA4LswMxVnAWA5ABQ1WwcTAAfAXMTQ3UQAOBIg+HbJi4yzVWViYQkgNTkJt60eG5vgT36MCUCB2YdmUy9VDf6vOZTkhyIMGunLcQAobYYEMAFgAmBEsQxf07hWWfy/V+e41gnzDIAhR2NYHww6Lun7UQCh9/6/vXOBt6Kq9/jvHDiACCKJgmRgqOCD0gwEEcXQ1MQnqOELj2goWGpA9jBSr15NrhY+UlPzXfnKd5qP7GaKlnavmnk1e1ife0vtXnyUpEmsPovL4RyPe+8zM2vNzFqzv/vz4bMPe8+sWY/f///7rjWzZ249KlrdeQE/AGANAIybd6azprpp9wlJA9KYq6dt53SrR0/tSnU7YgCgyQAgr6cBnvnpHc0PLznIvPnICVEnYQAgLgCwjwo+fe5ks+LxBVHrDgD42xrzbnd8aND2C87vySTTfm+v+B/qydDTFPMBSW+kBADbtv2SHgQAaDIA8HknNy9JK7D+BwDiAYAtR61nfv7twzH+jhhiBcDs+OVvGbV4vcHUnyVtltRQPW93XAbztwBwU9J6AAAdwRP4u69rAACAhQ0NAwAIHwDsaaZLv7xbc9zfP01eKgEAXrq+3Sw6dJzZY9wIM2RQP9N34Lpm+Lipxj5l74CbnvM2q0+yKjDppG+YltbWtLP7Rtu/KWlCUjPNYburMgLAi0nrAgCkCbAStwUAGhu3r9UIACBMAGhtbTH7TNlk1WkmX2NduXIKBoCbF+2+yvTrmVRb/4Fmh89fXAgEjP/M4kZGnuU7e2V92ff4t08YzFJ3u0+iiwEBgBJNPU0CAgAAgDR66b5tjL8C6NPWy2z/4eHmi0dOML9pxt/1p81NBQLAOXMmJTamsQefmCsEfOSoRYnrksJQ7e/ry37ZmXzWtm2cpPIAQNogK2l7AAAA6G7qaf4fAwBs8L7+xp6iss+QsHeRfMsaWknxFuVxCwKAX3xzpunb1iu5MbW0mD0uuC8XCLBw4WCS9fYN5QE/AECUgZhD0gIAAACXWPAFAPb8+9cXfCzzvws/v4u57oxp5u7zZ5hHrzrUPHfL7FW37G2aJ/blkBvW6KIgANhuzAb1jLPu5wOGjTTtDy33BgH29r5j9j267vEcoODyJDPngrYBANaIO8/AiaBsAAAAcIkFXwDARaTF6DDTWBcAAMu+d1Rm053+nae9AIB9sM+o3WZmrkcDOLirpBv91OMJACBTIERg6GnbBQAUk3i5CLDxOUcAoBgdps0Pq7YvAADuO2vvzMY75dRrnAFg1oOvmxE7Zq9DA/O/J8utdOs5t6fPAYBMgQAA1A1SEnjjBA4AAADR5pwCAODcOTvUzS0NzHXVPvbWvEl+zldvm0PueclsuO3OmY/foH53B2j+liEAgGiD0TOEsALQ2Lh96QQAAAB8aanwcgoAgLNmT8xswPbeAPXMvafPZ9zwrBk0ckzmY0do/gBA4QHk2bR91h8AAABc9MQ1AMXox2WMnPetKADsedGDpt+g9fIw/+8HOvPvOIPACoBzUARs6mnaBgAUk8BZAWAFIE1cBrVtBQFgp0VXml5tffMwf3vBX+rH53Y4c0HvAEBQAVYiTAAAAIBLLLACUIx+XMbIed8qAcBDy83W7V/Kw/htmdb8+xRk4i6HAQCcg6JE0/ZZdwCgmATOCgArAD7jttCyKgIAh//wVfPBXQ7My/zvjMT8LTgAAIUGUMCwAAAAAC6xwApAMfpxGSPnfSsAADPv+INZf+yEvMz/jojMHwBwDoiADT1t2wCAYhI4KwCsAKSNzWC2jxwA9r58qbF3DGxwxb7Ld7GZPwAQTGAFABIAAADgEg+sABSjH5cxct43YgCYOH9JXhf7WWiwj9VtczkZX9K+nAJwDooAzNtHGwCAYhI4KwCsAPiI11LKiBAADr3vz3me77fmf3pJ5u3jsABAKYEUIDQAAACASyywAlCMflzGyHnfyABg36sfN4NGjHZZ1m+07wpJc3y4cIllAADOQRGgmWdpEwBQTAJnBYAVgCzxGcQ+EQHA5C9danr1XauRgbt896akvUo0bl+HBgCCCKwAIAIAAABcYoEVgGL04zJGzvtGAACHP7DMbLbnLBdz72nflyWN9+XAJZcDADgHRQDm7aMNAEAxCZwVAFYAfMRrKWUEDgAjp+xnBo8a25OBu3z/K0mblGzaPg8PAJQSSAFCAwAAALjEAisAxejHZYyc9w0cAHL6eV8HMDwmaYhP9w2gLADAOSgCNPMsbQIAikngrACwApAlPoPYp3kB4HZJ/QMwbN9VAACCCKwAIAIAAABcYoEVgGL04zJGzvs2JwBcIKmXb+cNpDwAwDkoAjBvH20AAIpJ4KwAsALgI15LKaO5AGC5pFmBGHVe1QAASgmkAKEBAAAAXGKBFYBi9OMyRs77Ng8A/FbSNnm5bkDlAgDOQRGgmWdpEwBQTAJnBYAVgCzxGcQ+zQEAd0saHJBJ51kVACCIwAoAIgAAAMAlFlgBKEY/LmPkvG+1AWClpNMktebpuIGVDQA4B0UA5u2jDQBAMQmcFQBWAHzEayllVBcAXpU0LTBzLqI6AEApgRQgNAAAAIBLLLACUIx+XMbIed9qAsCTFbu5TxpwAACcgyJAM8/SJgCgmATOCgArAFniM4h9qgcA10paK41jVmxbACCIwAoAIgAAAMAlFlgBKEY/LmPkvG91AOBvko6rmJlnaQ4A4BwUAZi3jzYAAMUkcFYAWAHwEa+llFENAPgPSVtmccsK7gMAlBJIAUIDAAAAuMQCKwDF6MdljJz3jRsAVkg6Q1JbBY08a5MAAOegCNDMs7QJACgmgbMCwApAlvgMYp94AeAFSdtndckK7wcABBFYAUAEAAAAuMQCKwDF6MdljJz3jRMALpa0doVN3KVpAIBzUARg3j7acNmi3Tsee+n0PmOX0cZHfapaxl3nTXfq345Hnu46YWRQ/Xzt6Xt6aRf6CRgk4gKAP0r6hIs7NsG+AEBVjSZtu566/ggvCfycz+4clDGl7Ye8t3/lgXmmpaXxMniHyTd6P/moiUH18/O3HOVFP2cfv1NQ7cpbD1GVHw8A3CRpvSYwcNcmAgBRBWDOqw0bDlnbOYk/e/ORJPAexmnbzYc69/NDl88Mrp83Hj7IuV1PfveI4NpFjli9KhE+ALwm6TBXV2yi/QEAgrtzyfHOJfub/v3aMifxU+ZMInn3YP5Wb49edah53zr9MvfziYd81Kx8onPcQtHwvd84wAzon10/X2ifgH4S6Ke08Q4fAL7aRObto6kAQGnBFGigP3b1oWbYeulWAtbq29tcccoeJO8UY/rLm440IzdcJxUEtPVuNaGfYvn5tw83Gw0dmKpdffv0Mpd86ePoJ4V+SslbAIAP0w2pDACglEAKPNDffuyz5vqz9jJTx49oeL5669Hrmws/v4t59d8/Q/LOMKbv/Gy+ue3c/cy0yaNMr9aWuqY5euRgs/iEKebl++dF0c9//+l8c9PZ+5jdJm7cUD9jNxliliycav7vR5+Ool1NnysAgJDM20ddAICmD+oejGv50hPNr249yvzo0k+a7565l/nBhQeYZ25sN68/dDxJu4e+S6Ottx79rPnNHZ8yP75s5ir4uvv8GebpG9rNssjN0ernhduOXqOfey6YYX5xY7t57cdAYxp9BLEtAODDdEMqAwAIIrA8GgntCe/cOGPCmFRCAwBASObtoy4AQCUCE4BgNQINoIG8NQAA+DDdkMoAAAAAZmdoAA2ggQQaAABCMm8fdQEACPwEgZ/3zILymb2igfA1AAD4MN2QygAAAAAAAA2gATSQQAMAQEjm7aMuAACBnyDwmZ2FPztjjBijvDUAAPgw3ZDKAAAAAAAADaABNJBAAwBASObtoy4AAIGfIPDznllQPrNXNBC+BgAAH6YbUhm5A8CtjZ5o1ug7e4c0zBlzRgNoAA0EogEAICTz9lGX3AHgnEYm3+g7e7cwAj+QwGd2hhbRABoAAHyYbkhl5A4AMxuZfL3v7BPpVjy+gIAj6aIBNIAGQtEAABCSefuoS+4AMErSynpGX+/znbbdiKAPJeipB1pEA2jAagAA8GG6IZWROwDYxl5cz+hrfd7a2mKWXnkIAUfSRQNoAA2EpAEAICTz9lGXQgBggKTf1jL7Wp8tPHw8QR9S0FMX9IgG0IDVAADgw3RDKqMQALANHiPpZ7UMv+MzO/NfcNg4Y59Fz8V/XPyHBtAAGghMAwBASObtoy6FAYCtbG9Ji7qvBvTr09tM2nq4efiKgzF+ZlpoAA2ggVA1AAD4MN2QyigUALo2fN1Z08bOfvqGdvPOz+YT8KEGPPVCm2gADXRoAADo6mFV+Ls0AJD5z89twxJfYEt8HYHOO0kfDaCB7hoAAKpg+l3bAAAAIUAIGkADaCCBBgCAruZZhb8BAAI/QeB3nwnwf2aHaKD5NAAAVMH0u7YBAAAAAAA0gAbQQAINAABdzbMKfwMABH6CwGe213yzPcacMe+uAQCgCqbftQ0AAAAAAKABNIAGEmgAAOhqnlX4+/cd9+HJ8D7CqQP4FUCCgOtO4PyfWRkaQANlaQAAcPK8AHd+M4Pxm9X7rO3UHgAAAGDWhQbQQEQaAACcPC+wndd1MP/XndsCAEQU+GXNODgus100EI4GAABn3wuogK0cAOC/nNsBAAAAzP7QABqISAMAgLPvBVTAbg4A8KBzOwCAiAKfWVg4szDGgrEoSwMAgIvvtUjaVNJUSeu7FORp39kOAHCdcx0AAACA2R8aQAMRaQAAyOJ7H5D0PUmvdTPcP0j6qqR+WQr1sM+13erTcXFfkvfFzscHACIK/LJmHByX2S4aCEcDAEBa37OzbHvBXCNTfVbS+LQFO25vn8y7rId6NarziY7HFw8DIrGFk9gYC8YCDfSsAQAgje/Z2X0jE+36nV0dsCsFRb0+lqJuXevZ8feBzhVlBYAVAJZ/0QAaiEgDAEBS30tj/h2mem/Swj1st8QBAFZKGuZcBwAgosBndtTz7Ig+oo+qrgEAIInvZTH/DgjYO8kBHLexy//2+oOOY6Z9f9Tx+P+/OwAAADD7QwNoICINAAA9ed/ZDsZqjfjMng7g4ft5jnX8goc6cA0AiS+ixFf1mR3tY/UiiQYAgEbe52r+FgDubnQAD98NkPSSIwBs7qEeAAAAAACgATQQlQYAgHreZ38Wl3Ypvdb2fpbX69VS+opjPZ+vX3TKbzgFQPKLKvklmSGxDTPpKmsAAKjlcr7M3wLBN2sdwNNnQyW94QgAzr//HyKpXdKFA9fu89S0yaPMqcdMMvd+4wASR5UTB21D32ggfg0AAN292Kf5WwCY2/0Anv7fJukhR/O39ZvkUp8Zkl6pV4mPTxhpXrxrTvxBQqJjDNEAGqiiBgCArv73b/W8LOPn1hvzukXwpRnr1PU0xa8ltXbtgDR/n5ukAgP79zGPXHEIyaOKyYM2oWs0ELcGAIAOz/Nt/tZo7QQ5j9fxSbw3wTYHZa3crgkKX0Mam40YbJYvPTHuQCHRMX5oAA1UTQMAgPXAc9L4WcJtv5XVXHvYbz9JKxLWYY0H19j+pz0cp+7Xa0l6sUaBjQ5mTjpiO5JH1ZIH7UHTaCBuDQAAeZi/fShPr7oOmv2LL0r6R1rvrbP9lKzVsDs2NPta3288fFDcgUKiY/zQABqomgaaGwDyMP9rXM6r1zFlO+n+bi1fzfjZnXWOk+jjBRkPav73weNIIFVLILQHTaOBeDXQvACQ6Bq2lF6Xh/lvIennKevRaIJuTx9smcjp62x0XdbK3H/RgfEGCkmOsUMDaKBqGmhOAMjD/K/2PPPfUJK90t/H+f6uQHBZHV9P/PFtWQHg1nP3I4FULYHQHjSNBuKP0HsAAAAKnklEQVTVQPMBwNey+leD/a7yaP4DJZ0m6a8NjtfV0NP8ba/dc/5ZIgBAwos34TF2jB0a6NRAcwFAHuZ/pQfzt6Z8pKTbJS3PwfgtJFig2DrxNL/BhgAACaQzgdAX9AUaiFcDzQMAeZj/HZKGSxqW8N8YSTtLOliSvZbOXoRo7+bn68r+eqsBKyXt38DTU30FAJDw4k14jB1jhwY6NdAcAPD1nGbV9Qw3tM9PTuXwPWwMAJBAOhMIfUFfoIF4NVB9ADiryc3f/nzQ6wsAIOHFm/AYO8YODXRqoNoA8JkmN//HJdl7CHh9AQAkkM4EQl/QF2ggXg1UFwDsffjzPrce2lJ/1/o84uOK/1rkAACQ8OJNeIwdY4cGOjVQXQB4qoln//aXCX1qmbePzwAAEkhnAqEv6As0EK8GqgkAQyTZK9+7zoib4W+74jHfh8k3KgMAIOHFm/AYO8YODXRqoJoAcEATmv9rkj7RyLh9fQcAkEA6Ewh9QV+ggXg1UE0AOLPJAOAFSfaZAYW8AAASXrwJj7Fj7NBApwaqCQCzmwQA7N397G2DBxTi/KsPAgCQQDoTCH1BX6CBeDVQTQDYpuIA8I6ki1fffbBI7191LACAhBdvwmPsGDs00KmBagJAm6Q/VRQCbpFkbylc2gsAIIF0JhD6gr5AA/FqoJoAYM1xvwoBgH0k8P2Sti/N9bscGAAg4cWb8Bg7xg4NdGqgugBgLeu6iCHAPhXQeq19SqD9WWMwLwCABNKZQOgL+gINxKuBagNAf0k/jAgCXpF0haR987iFry+CAABIePEmPMaOsUMDnRqoNgBYz7P3ws8DAuyNhuxv75P+e1XS7yQ9LOkGSfYJhQtXPxp4iqRNJbX6Muk8ywEASCCdCYS+oC/QQLwaqD4A5AkBJ+ZptKGWDQCQ8OJNeIwdY4cGOjXQHADQAQEP5HA6oOkgAAAggXQmEPqCvkAD8WqgeQAACPC0pGDPX2R6sMINX9073kAhyTF2aAANVE0DBQDAabO2y+QXq33G3unO58teE8BKgEOPLskKAEsWTiWBVC2B0B40jQbi1UABAHDstK1cAGCug1fV29VCgP1dvUu9au3bFKcDTsracScdsV28gUKSY+zQABqomgYKAIB9tt+4llkm/cze0CePFxCQsVcPywoAh+25JQmkagmE9qBpNBCvBgoAgHGjN0hq9rW2m5DRp5LsBgQk6aVu20zNCgBTx4+IN1BIcowdGkADVdNAAQAwfL21axl70s8+0M1/fP83LwiY5buioZRnH0SQdPDetd3mG7+PBFK1BEJ70DQaiFcDOQPAinvmml6tLe/ygRT+YW+206cA47MQcF+KeiVpz+uS8oaXArrmvYcYmLWjWltbzMv3z4s3WEh0jB0aQANV0kDOAPCTc/dPYpb1tvnze+0nt0/65QABP8ittiUX/JesEHDZot1JIFVKILQFPaOBeDWQMwAsmLFNPXNP8vnTBftcHhAwuOA2FHK457MCwF47bhJvsJDoGDs0gAaqpIGcAWDT4YOSGH29bcqYQVsIuDerv9XYb+dCHLngg9gnFtUbtIaf9+vT2/z14RNIIlVKIrQFPaOBODWQIwA8c+nMhl6QwEO+UrCvdRzOJwTM6yi0Su/2cYWZB/fmxfvEGSwkOcYNDaCBKmkgRwA4o31CZo9Y7S8fLtE0fUGA9crKvexzlpdnhQB+DriQJFqlJEpb0HOsGsgJAN7+/rHmg8PWcQGA3wTgmhYC7GkIl3aMCKAduVThdpeOufv8GSSNWJMG9Ua7aKAaGsgJAM6bO9nFNO2+X8vFtdIX6gIBv05/uHj2mO0CAB/adIj5x+MLqhFEJEPGEQ2ggRg1kAMAvHHbp8yQQf1cAWCngKwwCwTYexhU8gLAjnHZQNI/XCDgilP2IGnEmDSoM7pFA9XQQA4A8OVDxrma/yuSenUYTSDvFgLuSeF35wdS71yr8XCKDnmPKDYaOpBfBJBIq5FIGUfGMUYNeAaA//nOEWbtfm3vyfUpfcL+yizEV29JJ0t6u0F73pJkH5gXGsDk0p+fa9ARiURwwK6jzconuCjOxJg8qDOmhwbi1oBHAHjrrmPMxC2GJsr7PfjG3rm4lb9CPyTpekn2HL9tr13u/5Wkb0vawt9hwi/J3uVoWQ+D2aMgTjt2h7iDiCTI+KEBNBCjBjwCwKxdx/SY6xN4xbORzZ7XlbRO+FadXw2dVwFaWmRuOWdfEkiMCYQ6o1s0EK8GPAHA4qO392H+toxK/m4+P/stv2R7ccTvE5BdQ4EM6N9mnrr+iHgDiSTI2KEBNBCbBjwAwJ3/sqdpbcn8xL+uvmCvKeMVYQ/YZx93HchMfw9ep5954OKDSCKxJRHqi2bRQJwacASAKxdMNX16t2bK9zU8Y1KE3keVJbVKerLGgKYWRu9ereaCk3aJM5hIgowbGkADMWkgIwCsuGeumT9j69T5vYFH3IqTxt0DuzcY3NRCmTP9w+bvP51PMokpmVBX9IoG4tJABgB47ZajzR7jRqTO6Q38YYWkzeO2P2pve+D+BoOcWjDbbbWhWXrlIXEFFAmQ8UIDaCAWDaQEgNtO/YRxfMRvLR+4FPusRg+MlvSqTwiwZe3/sc3Mc7fMJqnEklSoJ1pFA3FoICEALF0y3Uweu2Et83b97EVJ61fD/miF7QF7KsAu6bgK413722sDjpmxtfn99+fEEVgkQMYJDaCB0DXQAwA8fcknzfQdRr0rF3vM7X+RVOYjf3HsnHrgBI8ieY/4PrrFUHP63MnmFze2k2BCTzDUD42igXA10A0AVv5gnrGz/ZMO+ogZs9G678m9HvO6fY4Mv/nPyYBDKPZyj2KpK8RR7x9k5h24jVl8whRz3RnTzIPfPGjV6YI3fnJ8uEFHQmRs0AAaKFEDy370afPMje3mvvOmm6sW7mLOPHKimb37FmbY4P51c63nfP6FEEyKOuTXA30kPeRZNEWJk+N4PoWDDvyeEqM/6c+INXBNfrZDySH1gL2443cRCxUQAATQABpAA/40sFRS35BMirrk2wNjJf0RCGDGggbQABpoag08I2lovnZD6SH2wPslPUHwN3XwM4vyN4uiL+nL2DRwp6SBIZoTdSqmB9aSdAMQAASgATSABppKA2evvl18MU7DUYLugUWSVpIAmioBxDZbob7MsNGAuwbeknR40G5E5UrpgemS/goEAAFoAA2ggUpq4E+SJpbiLhw0ih7YRtLzBH8lg5/Zk/vsiT6kD2PVwCOSNorChahkqT3QJmmepJcBAUAADaABNBC1Bl6QdGCpjsLBo+yBAZJO5bRA1MEf62yFejPTRgNuGrATuOMk2QkdL3ogcw/Y34heJOkdZgLAABpAA2ggaA3Y67hOk2QncLzoAW89YB8rbG8X+ToJIOgEwMzJbeZE/9F/MWrgJUnnSRrmLeNTED1Qowfs8wR2W70q8N/AADCABtAAGihFA/aC7cWSJvGb/hpOxUe590CLpPGS/lXSL0kCpSSBGGcr1JlZNhpIrwF7r5bHJH1R0ha5Z3cOQA+k7AH7M5MdVl91eoIke7epayU9KOk5SW8ACUACGkADaKCmBpZJsvfmv1fSlasnVvZCvv0lTZBkH+TGix54Vw/8EwaPRJzmo6hlAAAAAElFTkSuQmCC;" vertex="1" parent="1">
          <mxGeometry x="831" y="185" width="133" height="133" as="geometry" />
        </mxCell>
        <mxCell id="np1AuirhnK_I6b898Ldq-3" value="" style="shape=image;verticalLabelPosition=bottom;labelBackgroundColor=default;verticalAlign=top;aspect=fixed;imageAspect=0;image=data:image/png,iVBORw0KGgoAAAANSUhEUgAAAgAAAAIACAYAAAD0eNT6AAAAAXNSR0IArs4c6QAAIABJREFUeAHsXQd0HEW2fd2j0ShacracI7ZxwjnnnC0Z22AwjjiKZVlgl7BkFoxNWsKS44IXTDTGOcg55yznJCvgnIOk+af4mt1BmlQ91TPV3XfOmTNST0/1q1uv3731ugIRXkAACAABIAAEgAAQAAJAAAgAASAABIAAEAACQAAIAAEgAASAABAAAkAACAABIAAEgAAQAAJAAAgAASAABIAAEAACQAAIAAEgAASAABAAAkAACAABIAAEgAAQAAJAAAgAASAABIAAEAACQAAIAAEgAASAABAAAkAACAABIAAEgAAQAAJAAAgAASAABIAAEAACQAAIAAEgAASAABAAAkAACAABIAAEgAAQAAJAAAgAASAABIAAEAACQAAIAAEgAASAABAAAkAACAABIAAEgAAQAAJAAAgAASAABIAAEAACQAAIAAEgAASAABAAAkAACAABIAAEgAAQAAJAAAgAASAABIAAEAACQAAIAAEgAASAABAAAkAACAABIAAEgAAQAAJAAAgAASAABIAAEAACQAAIAAEgAASAABAAAkAACAABYyCQQET3ENF0IvpAkvdUIhpCRLHGgBBWAgEgAASAABAwFgKTiOgcETklfWcT0V3GghTWAgEgAASAABCQG4EXJCV9T2JkitxQwjogAASAABAAAsZAoAMR5RtIANwkonrGgBZWAgEgAASAABCQF4E5BiJ/V0bgE3nhhGVAAAgAASAABORHQCWiKwYUAMfkhxYWAgEgAASAABCQF4EKBiR/lgVgjywc8sIKy4AAEAACQAAIyI1AY4MKACYCmHjBCwgAASAABIAAENCAQA8DC4BGGuqLnwABIAAEgAAQAAIFi/64BtYZ7bMrWhAIAAEgAASAABDQhsBDBs4ADNNWZfwKCAABIAAEgAAQeMnAAgALAsF/gQAQAAJAAAhoROBDHgFgV9Ws+omld4h+V4qN385jR8G5z2isM34GBIAAEAACQMDyCPzMQ7wtSyZtzElJdYp+b+szej+PHQXnvm351gMAQAAIAAEgAAQ0IrCah3gHVKy1QTT5s/IykyfnEFEejy1E9B+NdcbPgAAQAAJAAAhYHgGunvekmo026SEAclJSc4noDKcAWGT51gMAQAAIAAEgAAQ0InCeh3Sfb9B+h04CwGlTlIM8thDRVo11xs+AABAAAkAACFgaATvvLoCftOx1QC8BEBth38wpAE5YuvVQeSAABIAAEAACGhEoz0m4zrmdhmTpJQDKRcWu4LTnusZ642dAAAgAASAABCyNAFtKl2v1v829Rl7TSwDUKVaSPdPnsoeI4izdgqg8EAACQAAIAAENCHTjJdxjAycKnwLoEhQdy1Scy2sPEVXTUG/8BAgAASAABICApREYzkO4CilXXWStx+ewKnW1CIDmlm5BVB4IAAEgAASAgAYEHuQRAA7VdkoP4neV+XCdFvN57Ck4t7eGeuMnQAAIAAEgAAQsjcCLPISbGOnY7yJrPT7/2bTrUh57Cs4dYekWROWBABAAAkAACGhA4AMewq0SG79dD+J3lflj+0FreOwpOJftZogXEAACQAAIAAEgwIHAjzyE2zixjF6rAP4+sHBtj3t38thTcC7LYuAFBIAAEAACQAAIcCCwkodweyZV02UfAFcG4OjACWxhH95pgCyLgRcQAAJAAAgAASAQAAJs7vwwImIb8ARMuPdVq6/LToAuAZCTknqNiK7w2EREW4ioWQB1xilAAAgAASAABCyJQDwRsWl/LO1/lZNkfxcJj93ecpsbWeuyHoBCyjEtthHRYSKaSkRNLdm6qDQQAAJAAAgAgUIItCKiT4noskZi/W+G4J1m3fbpLQAcasSOYO0kor1E9BciKlkIC/wLBIAAEAACQMDUCLDefioRiSDT/wqAH9oPOqG3ACgRGaVlJsB/bSwkHtheAV8TUQdTtzYqBwSAABAAApZHoDQRPUtEZwoRoTeC5Dq+psc9F/QWAFVjE5boYXvB1sH3EZHN8l4CAIAAEAACQMA0CFQhone1PtsPkHBzDw8Yn6+3AOhUppKW1QB5hMw+IhpLRJGmaX1UBAgAASAABCyHAHvG/ToRsVQ3Dwlyn1vSEa3rKoAuYfFJy15cUxODqPchIrqbiBTLeQ0qDASAABAAAoZFIIaIHiei80EQIJcIeKRu850uktbz81Ty5CuKTo8wvGC1mYi6G9YTYDgQAAJAAAhYBoFkIjruhcy4SD3QMorZI4+eHDRJl2l/nsTE2BoNtewJEGzd5xBRdct4ESoKBIAAEAACXhEoRkRNiKiuJM+LqxLR7EBJW9R5iZGOQ9t6j7rsiaj1PNaiRNJyUXXgKIetj/CkJO3NHDMajyi83p/4AggAASAgHIHWRLSQiHLdiOMCEX1IRLcJv5r/Atmo9b9qWCEvqB6xXVVz7q5Sd+uJgZN0H/jnTUi81Kj9pjhb5AG3dgiqThzlsHUEwjV1sDIRTSMiNkaB1TePiNgeCcwHmCDACwgAASAABHRAYEpBwPVGNCwYfxfC1eZYSnoVB3F5szuQ4/mJkVEHhlSuvWlWh+SsrOQpIUv5exMAruOzOw4+NqxKnbUlIqP2FBJmgdRL6zmsracTkUMHP/NUZD0i+oKIbvpobzaDoZqnH+MYEAACQAAIaEeADQTL9xF8CxMJyxJ01n45v78cQ0QXOewpbF8g/9+sEZe4/ekGbXbt6jPmuotwZf7c3+/+69Pv6LStfkKp9Qr/vgGBYFL4nO1E1NBva2k/oQ0RzeLwPZYRYXs54AUEgAAQAAICEGC9vIMayXYdEQ0iIlWAHawINvbgB422FCYvj/8Xszv2T67VeMOevmOuykz2/mw7MmBC7gsN2+2qGBPPUuTuj2w81jsITNk0ywcFtS8rhk097EtEKzTa9IZAW1AUEAACQMDSCDymMRC7E81uIhpJRPYgkKxPROkCbHG36/e/FaJr7UpX2Ly0611n/BGrEb/f1nv0+cGVa69WFeW0HvgVlPkfIooNon0jiOheAUs0s8cEdYKwAz8FAkAACAABIipLRGyQXxHS1HiM7WbHeotsrj7P6y4RG/YUttmmKGf6V6ixaUfvUdeMSOy8NmcMmpT3bMO2W2NsdtcgOlHt6iqHDRC8nadhC8YRsGWI9xdunyD+X8RpA04HAkAACACBQgh8FkQQdpGCp88cIvo7ERUvdL3C/7JHB2ywmacyNB+LUNTTf6nTbOfxgRPDNoqfl7xFnp+dkup8r1n3HXH2SDZwTjOOXn7LFmDqVbghPfxfgoieIiLmC6JtYOX18XBNHAICQAAIAIEAEGDz/Nlobz2Cs6vMS0T0TyKq6MEeNvaApZVd5wb9qZByZVDFWlsPDRifK5JQjVoWEwKvNu60w6HaWGYmaHzdymBjDiZ6aFN2qFzBpkx6r9TIBgRiTwMvjYDDQAAIAAFvCLCBWKvdArpIcvBUFhtI9gER1SwwiPUORa57n9upTOUtu/uMNcRo/lALioxBk3In12q8RlUU0TslPue2WA9bNOpTIroRQr/6szcHx3EgAASAABDwjMDwEAZpd0HAeo7fEBF7lux+XPPfCZGOQ3M73ZkZalI14vX29h174Y7E0hs4pt0F0i4ziOinEGSTPNlyjohKeXZxHAUCQAAIAIHCCLAV1USnhD0FZ12PsZH9w6vW3Z4xaLI0i/YYRRR83aYfeyxwWJQIC3M5/yrs4PgfCAABIAAEPCPwfJgDdtDCICkqbu+GnvddNArhymjnsYETbnQtV5XNxedZACrottPB91hWqYFnV8dRIAAEgAAQcCFQKdTr6gsO+Pm9k6rvRK8/VVjW49OWvbeqipItuJ1CLRTYDop4AQEgAASAgA8EZho10LOpfV+06nNExt600W3a1WfMmXLRsZuM6hsFdrOtovECAkAACAABDwi015juXTumRoM1DtX2W7gIolJM/J49GOEvrNfvSbBkJU/JH1zpNrYNcbgeCdysl1hqVbdyVZdp9DO2nHWoNi/ycHvhEBAAAkBATgTYgjsbNQTWvNcad36JEcbJQZOcL9/R8WhiZNRJDeVoTgm3KlV+C1L+4lL+nsjf/di0Ozqx/R2uhLCNb9RPKL12VffhGcyOU8mTc6MiIrSuGvg3OW8/WAUEgAAQCB8C47UE9Gib/auclNQcd4JgW+V+2LznsTJRMXrvVZ8/slr9ve7Xxt+hEQJzOw5OtynKKS0+E+hvFKLLbUqXX76116g/+Bdr489b9WEbHGkRjWwHyaTw3Wa4MhAAAkBALgQSiEjLIK8Lq3vc86Ev0p3ZdsCpqrHFdolOGytEV99r3uOgr2vjO33FwKZe952KjrAL35xJVZSzd1auvXpf33GXfbVh5ZhiWsckfCLX7QdrgAAQAALhQ+BVLb2p2vHFp+WkpN70FaRd3y3uMuxMsxLl2N7xt7Rcy/03jPy/at33qKtsfOpL9L7w3d/v/vPx9kitvfE/9OBtinL6zkq3rTvUb3xAGzOt6XEvy0CwFST/UE4A/7PlrZuH73bDlYEAEAACciDAlt7VEkQPHBswcZEvcvD03caeI853Llt5PSPxAAJ1kcDO1vL/pm3/358FeyrfIMfycwannj2VPPlETkpqdk5K6iWD2O1xkOGBfuMvJNgdO7S0J/uNQ7VlpN7WdOvxgRPzeHHokVRV63LVa9yWKJbjToQVQAAIAIEQI/CrlsB9f80Gz/EGa/fz9/Qde2VwpdvWqorClmotQvSejqmKcvHnDsmn3MuR8e+jAyac/KVD8pqn67eZ37dCjV+rxyUujI2wb4pQlH0K0VEiOltoPXw2oO43VVGO2FV1V4I9ak3D4qXn31Ot3q9vNumyeGW3u7dmJk+WelGjwwMnXCoZGb3ZU7t5OxZtizj5xO2tdp9K1r5S4+EBE67atK9RwLaYxgsIAAEgYEkEenoLzr6O2xRlfk5K6gER5HtowPgb46o3XB+hqFm+rlkyMupAWpdhRQaDibAh2DIODZhw5O2m3RZ0LFPpp5gI+6pC5B6QuPFV94LvLiVGRm1Irnjb3K9a91uTMXDyhWDtFv37YwMnXrktvsRaf3UpHhl14O1mXdPZYFERNjx+e0su4eFmH1vumi17jRcQAAJAwFII2Iloj1swDJSobn7Tpv+rIgK3exlsN7rHbm+1ISHSwTYBcs0zz4+22U6Oq9FQuvX8d/Uec+C+6vXnxEREMPJhS80Gip+o8y5WjI5Pm3ZHx0WnBk0+745luP9+r0WP7dE2+yF3TBRSrtaIS9z+eas+x0Tbx4REMbtD67TApy1116OyQAAIAAEi+pN7gA707xKOqA9yUqbomo4+OGD8rTkd78w80P/+XNFkEUx5xwZOOPPo7S3mlXBEsV5+0IMZA8Xc33kK0Zn6CaXnf9Wm34qclFRpMNveZ9TVL1r3Pbis693nMgX19r2137dtBxxxE448IusyEVVERAACQAAIWAWBEkR02h+xePg+e0/fsf/xFoTNevxQ//FZ91a9fZ6iKJkeMOEhG93PdagRux6u23xhZvKUq2ZtD2/1qpdQaovG9vnKKjc+6gkEgAAQYNujcpNRu9KVXsxJSc33FoDNdnxLr5EHWpWqMJeI2OIx3HiF8zd2RU1/qHazuacGTTb0DAMen9rae9RFjbNL2COndggLQAAIAAGzI1BPY/p6c1bylPU8Admo554aOPky6/ET0aVwkriIa9sU5fAbTbossYpwu6tKXa1ZADaWgy2HjRcQAAJAwLQILNRALPnPNmj7slEJncPu/Pea9VhoV1StA8qkzRKUiYpZvaHnCNMvm8zWEnCoNq2Pau4z7V2PigEBIGB5BFI0kL8zSrV9k5OSmslBpEKmd4Xyelt7jTpSJipmpRZ8DPSby8kVa/2amTzleiixDfW1Xrmjo9Y9KNhU1GKWjxIAAAgAAdMhEElEWnq2VxZ3HfZBqIN4KK/3UcueKxRSfK5DYCCS95uFKGaP3Li118jDocQ4lNfKTkl1JkXFad2j4B+mu/NRISAABCyPwBNaSKxKbAKb82/KHuOp5MnXeiZVZc/62drwfonTTOcoRL+92bRrWiiJOZTXmt95yBmN7cqWxWbLY+MFBIAAEDAFAmWJ6IIGAjt0dODEOaEM3KG61vbeo4/GRti1Dhgzi1jI61i28pys5CkBbegUqrYRdZ02pSto3aToO1Pc9agEEAACQICI3tJA/s6hles8KyoYy1TOqm53s73s2TKwoSBy1qNkRPQ9Eb1ERH8hovFENJSI+hJRMhGxwWeTiegxImJTNJcQEdvpLhT2OSvGxi/JGDRJ18WdwtH+O3qPvqkqClvoRwuOrRE5gAAQAAJGR8BGRAFvuOMWLK+91Kj9azkpqbfCEbz1uubP7ZM3KaRku9VTCzn4+g3b6OengpUW2ZRLhr/WVwIR9SYitl0zy1bo9qiiRGTUuiMDJpzWC/dwlJsxaNLuYnYHW7XRV3t5++4/WhsNvwMCQAAIyILAbRoDIAuMuTXjE784MXDSvnAEcNHX/Lhlb0YGWh6FeCMJ13G2XsCXRNQtSML35zNlCoTFpiDa1GVzkc9oNWL7rj6jj4jGPQzl5f/SYfC3qqJo3SSIYZPhrzHwPRAAAkBAdgQaBUsWqqLs+K7dgBlGXkzmk1a/k/+1YLEo9Hu2mdJoIooLgxOw7AJ7tHO1kE1FiJ3n+0hV3b+n7zjpt1z2JiqyU6YcaVOy/D8F4MJ8BS8gAASAgKERSBSUOr7eqlT5DzOTp5zwFnxlPT6/853bFaLzPETo59ztBc/tg0nvi3Kq0kT0LAmsX0yEfceRARPOytqe3uxa0+Oe2XbFluan7QIVSGxzIbyAABAAAoZHYLmgoOiMUJTVi7rcxbIBhljsZ1X34emquGf+bIW5e4lIkdAjmBD4VOOOeEVIsZQjetWp5MlXDNLO2cOq1HmNiNj4iyJ10XjsQwnbGCYBASAABLgR6CKKGAqC6cWUSrXfz05JPSMzQezoM/qETVGPaiQAdyLJJaK3iYgNypP91ZaIWIbC3X5Nf9eML7EkW6LthT352s4+o2dH2yLYoEtNdfTyu5tEVFv2hoZ9QAAIAIFAEWBTzNiuZ8ICZZQtYv6W3iMXegrM4T6WmTzlZmKkI5hBYC6cThJRh0BBluS8CCKaKqK9h1e9fX6429Lj9ZNTLzxWr+WbRMTax9VWIj7ZPTJBknaEGUAACAABYQgME5wmZQE3+8HaTd/NSUmVatvZnklV5wsghsVEVE4Y+qEvqCsRad0Yx0WmN79tO2CDRxIO02Ogw/0npJWIjPpchMAp5CNsnAhbnwEvIAAEgIApEWCE9muhwOcK9po/i0U65uzpO3aNDETxacvea9kUxiDr+KKkz/p5nbIiEW0LBgubohw92P/+LAna9tq7zbqzRzF7g6mPl9+yKaI1eMHF+UAACAABoyHABrGx1ei0rpLmTSgcnda48yc5KalhW1p2V58xJ1RFCabXy1LAbLU+M73YNEUt20D/t50rxcSvzElJzQuXCDiZPHlDjfhEtiDSDS8E/l9bOb9n0/3+RkSqmRocdQECQAAI+EOgOhFpXSnNW8DNLxcd992RARN2hIMsqsYmBDPjgQ3+Yo9JzPiKKlih0Fu7+T3+dP02S8PQprfmdLrzfYVoNSex+60PEW0gojpmbGzUCQgAASAQCAJswNgzRHRLZIBVFGX3nM6DQzpd8PNWfZiY0TrQkf1uZCCAGfgcOxHN1drOqqJkHB4w/lwIRUBWk+LlXiGiK1pt9vI7JvSeJiLm+3gBASAABCyPQDMdnq0eT+s67KtQEMap5MlXI1V1n5eAH0hv8CGLeEAMBdGb7lCm0oJQtGdOypSLteKKvx9Ee3prc7Z6I/N1vIAAEAACQMANgWgiYsuoau1Fewq6e44NmLhIb9IYUqn2giDI4mU3DKzwZyki2q8RrxtLug7bo3t7VqnNdkX05E9aj7GNlN4gIubjeAEBIAAEgIAXBNimNsdFBeChVWo/rydh7Ok7hg36YxvyaCGHpTpv4OMF4rAfbkhEmvZGKBMVs1bP9jw6YMIhIjqjsT09+QBbDKpz2BGHAUAACAABgyDA9hD4SkQQVkn9NiclVbetZnsmVVuk0U62LXB5g7SHHmayBW88EabfY7M7pmzTSwQ8Vb/NHK12efjdZ0RUTA/wUCYQAAJAwOwIDCGi0x4Cq1+ScPvNppyUKZv0IIxD/cefVYjOuV0rULvYY47uZm+8AOr3jQbsnFXjiq3Qoz1Zmb2TqonY0IeJu4EB1B+nAAEgAASAgA8EkoIZPU5Ea3IGp+oyLXBY5bpae/9f+Kivlb4qqVHg5a7sdne6HiKgX/kaK7WIErffsL0BylipEVFXIAAEgICeCLDFg1jKWMviQf/OSUm9LJosTg6adEXjoj8sY1BWT7AMVvYkN/IMNIPibJhYWpd1AR6p03yjFnsKtkQ2+1ROg7kWzAUCQMBMCNTnDc71Ekq/LJr8WXn/aNhe66I/k83UIALqwlbB00K6V9gjGNFt+3OH5CxeHyOinURURQAWKAIIAAEgAAS8IMC2mw24l8jOfa9Fz3+IJglWXvnouDW8thDRYSwA47Fl2cwPrnZl5z9er1Wa6LY9lTzZqSgKb6aJPTbACwgAASAABHREgC2Yw0MU5zMGTWazAJwi3/v6jfuNiK5z2sLsxlav3p2De1noMlEx60W2q6usSrHxrEfP42dsGqjNe9XwDRAAAkAACASLwAzOwDw7JyU1wxXYRX1OrNl4CacdjEzYegFsTXy8PCPQTwOmt3b0HnVKVLu6yhlVvf5mDbbU9VwtHAUCQAAIAAERCHD1zKrHJrziCuoiPxPskVs1EMRjIgAwcRlsoOcuXlzH1Wi4RGTbsrJ+7pB8ktcOIrrXxG2DqgEBIAAEwooA20yGazvWB2o3fUE0ORzuP+ECEbENXXhSxGwp2EphRc8YF/8rJ67OpOjYdaLb+PjAiWydhlxOW14zBsSwEggAASBgPARYipWHdJ1Luw57TTQ5vNu8+1peO4hoofHgDovFbGVELuJViC5kJk+5Kbqdo232Y5ztzFYQxAsIAAEgAAR0QKAvZ0A+kzM49QfRxNClbGUtz/+RHg7cIbg3VprdIWWn6HauXaw47ziAg4FXEWcCASAABIAADwLjOQUAmyImfLW4uIhIrnEIBT3a4jwVtfi5bJ0ErkzPfVXrCR8HMKxKnXWcdrDHPBjkaXHnRfWBABDQB4FneQKyXVXfy0lJzRXZMzw2cCKb7nWLxw4i2qQPHKYttQ4nvs6KMfHCdwh8vUmXHbx2EBFbqAovIAAEgAAQEIzARzwBWY8ZAHM6Dd7DY0PBudME42CF4rhG4Ueq6mGRQo+VNafjYLaNL1cmgogGWKFxUEcgAASAQKgRmMcTkPskVRM+A+CFhu25F6shIjZ2AS8+BP7N09ZsVkZG8qQbIkXArj5jeFcDZGJhIl81cTYQAAJAAAgEggBXSvbxeq2EC4Dkirct5SQmRgqY/hdI6/7xnEd5cV7ZbbjQLEBW8hTWdlzTTonouT9Ww5r/MYdnqvfPRPQkEU3FGxjAB+ADQfoAe/4ecEr223aDhC8CVLdYCd6tYlkvki1wgxcfAiyVHnBbs3PfadZd+LLAEap6itOOD/mqaZ6z2Rxd9qyLTYXgajicD7zgA/AB0T6wt9/Yt0WmhFlZCXbHdk47t5gnxIe0Jrdx4uwcW6OR8I2BEiMduznt+DWkKElwsXpE9DMRsZWTQPzAAD4AH5DBB3Jzkqd8IloAOFQbbwdnpgQx2ogmsFUfuWZb9KtQQ7gAKBcdy2Zw8PgzGyNiiVcEEb2oYUlMHjBxLp/zAS/gBR/4fx+4lJ2cOkO0ALApSgYnIbxvCTbQp5JneLDuWLaScAFQObbYeh4biIgtHmT6V0kiWsEJDAITyAk+AB8IlQ/8lpOS+qNoAaAQneOMe9NNzwb6VZBrGl7j4mWWi27v2sVKrOFsbzZN1NSvskTE+1wkVDc9rgOCgQ/AB5gPHM9JeWCeaELQkPF8xtRsoG/luFZcvC2++CrR7d2oeBneaZ9H9IUkvKXHE5GWbTARlBGU4QPwgVD6QHpOcqrQlHDGoMnXOXuDrL6PhDdkG/rqXL3vCtHxwmcBtC5VnjfTnWVoxP0Y/42GGyCUNz2uBZKBD8AHmA8czE5JFbo+fFbyFDbQma33zuNjbBo0XtoQYDMoAsa6Skwx4dsCNy+ZlMZjAxGxMSKmfN3NCUTADYdyA3dyYAWs4AMB+UBGTkrqr6JTwgoR7+pwL5uSDUJTKa4ZF/USSwl/BNAgsfRyzvvNlDsCxhIR74IIEAAc6pXTyYAtsIUP+PaBMzkpqd+LFgCqomRz3qvvhIYrTXmVHB6sW5cqL3wQYK344rwLP+0yY0s8xNMQODegHgoCuO8ADnyATzA+cPW35NR/ixYADtV2mDO+sTXt8dKGANeYi95J1ZaJbm+2yyBne2/UVlV5f8WWseRKxXACFsxNjt+CJOAD8AFPPpCfNTj1Q9GEEBdh590N0DILwwimsAq8PHJ3lbrCBUDpqJgNnHawQYOmerXlBMDDzahcUBTlHN7AAD4AH9DqA7yrjW7vPepN0QKgYkw86+F5iHFej/1mKjYIXWW6cuLs/Hv91mtEt3dshJ136efvQwdRaK7Edjficfjfz3U4YnffdffTG196eem1adNXOfEGBvAB+EAwPmCz2Y/xxKIvWvd5WTQhdC5TmXdQGIuHbOE0vPgQmMzT1uzcHzsk7xXd3qqinOS0w3RjPhZxAuBMTCy7/uWpy24Ec7PjtyAL+AB8wN0HYmMTuNYg+VPtps+LJoSHajfjXRiGCYB2fNyHs4nobV7eSe837qLI9s5KnnJVw8JPppv2eZynIVh679nn5p5zv3HxNwI5fAA+EKwPlE2qzkW+HUpXelEkIbCyvm7TbwdPPCw493FQOjcCXKlkjnbcAAAgAElEQVR3VVHY0s9Oke/tvUexVf14s99juWsq+Q9u8oBQsWLtFcHe6Pg9yAI+AB8o7AP16rXjWpSlYnT8NJGEwMra1WcM1wY1BbFzoeQxXjbz2CMTrgWXikc6totu61kdUtjGPrwCoLdsYAZjj4MXgObN+ywrfOPifwRz+AB8IFgf6Nz5Hq7n7zZSP81JSb0umhhs/GsBXCEiFkvxCgyBoby80650hZWi2/n5hu0X89pBRDUCq6IxzorhBaB162QIAAx6xKBP+IBwHxg67AneKVnrclIeEN4zrFOsBO/ccNaL7GaMkC+FlZ/w8s5rTTpvEi0AeiZVn8tpB1u3wCYFgoKMgABAIBceyIPtCeL31swmPPrXr7lmARDR5VMpk74WTQyP1G3OtUlNAYl8Ligmm72YKOLfcjlvX9+x50W3c/noOK6MExGZbhVACAAIAAgA+IAUPvDKtBXsuTDXWvw/tR/0imhiWNv9XrbjG++zYWZ3nNnZW0D97uLFNi7Cvk90G7PybIpygNOWHwTUX6oiIAAQ/KUI/uj1W7PXX7jdHY4YrpX47qlS9wU9yCFCVXnnhzPBMEKq6C6nMXM4SdfZsUylFaLb+NigiWzPh1xOW16QE1LtVkEAQABAAMAHpPGBpKQaXJuzlLBHv56TkpovmiDalq7ANSWxgEjWaw/FlvhlLQ2k6/y6dd/dotv3m7YD2JK+vFmegWZrJQgABH9pgn/h3iD+t15WgM0y4gzMK7OTU4UTxC8dUg5x2uEik+5mIwmB9fmUF9MIRT2VlTxFuMAbXPG22by2EBHbv8BUr7ALgMef+P5U164jV9Sv3z6tfPlaK0uWrLgGb2AAH7CmD0RFxe7kDMw30vuNFb4pEOtxRqk2LQvFMAGDV1EEKhPRDc62dfZKqiZ8+h9r21KOaN4BgJlFq2T8I2ERAK9MW5nfr9+U1QXP+/J5nQLnc6euXL0TfPKn/YCZ5Jg9WLupLuMA7q5yO9fjCLe41Nn41CC8Bh+54RPwPbWw89AjotP/2SmpbMDmaU57WMbAdK+QC4ApU97fGxkZtZcT/IAdBuVCHMAHrOUDiXYH2xVQeJp4c6+RObwr1hX4HpsuZjcdW2ivUAstOMZG2PeLJn9W3txOd2qZ5nmBiEZrh0DOX4ZUAAwc+BBbYINrmg+CubWCOdob7a3BB2bnpKRm6EEWNeITebcHdnVWHpEz5IfcKpWI2OBIFy4Bf/69fuv1erTphJqNFmixp+A3PxFR6ZCjqNMFQyYA+g98gKkupPs13AhBOGvANxuuwR+ggJk0mG3MSUndogdZzOk05LDGuHWJiNhzb6u/HtByn0SoakbGoMl5erRp/wo1l2ixye03bJ2I/mZo2JAIgImT3t1HRGzrRRASMIAPwAdE+8CGnMGpW/UgC1ZmhZi4LRpj1zqLPwqoT0RsnwTu9k6t1XiNXu3ZtzzfVFMf9rNxDfFGFgK6C4Cpr6zItdsjD/oAkds5UBb/DQXMgJlZfSDR7ngrJyX1pl6E8UP7QelBYDfVyAQRhO1sVUSuRZ1cGLOtf48NnHBDr/Z8vUkXrVM8PXEVK6tdEDiF9ae6C4CuXUdpWXDBE9A4pkFJu24qfEIAmNUHPm7Z6yW9yMJVblJ07DaN+LHHnn3DGuVDf3GFiL7WiJdzQs1Ga1246/F5bOBEp6IoIjPSbEVBJvQiQw91cFfUXQDYbHYtc2lB9iB7+AB8wK8PFI+M+jInJfWUHkThXubq7vewpYHZbnB+bfJwDkuDtw4uVBvq1y96wCAg3KJt9kN6Pft3b8+R1euf0Gqjj98xkdjASC2lqwD480Of8m62EJCT+GgA/F5bgAJuwM1wPhBji5h9KnnyTvfArufffcvX0DJ9zIXrb0RUx0jkoNHWSUHE5/yv2/RN17MNXWVnJU9xdilbWct+D6729PbJRCKbAcJmP0j/0lUAtGjRn3dZT2+g4jgICj4AH3D5QG7N+OJfnBg4KSRk4SKNowMn3GCj04MgOJYNrSI9K2g38F4t8/1deNZPKKXLtD9X+xX+zBg02TmoYs2jGmd5uHzR2ydbabCqdihD80tdBUDlyrfj+T+CtrcbBMfhG9w+oBAdfb1x189zUlJvFQ7oofj/rabdtrsIS+MnExCGShMHSEUPBkP+qqKc39Fn9LlQtGHha8xo2/9ctC2Cd2XAQHyXLR40PkD8wnKargIgMbEs9wIQiqKeUlX1CN7AAD5gSB/Qq0eVXzYq9tuD/cdvLhzAQ/1/q5JJbHpfIATg7ZxzRNQ+LBFf/EXZgL9ng8Qj/40mXbaHuh3dr5feb5yzfemKx4Osh7f2lnbxIF0FQExMPLda/nnu2sxj2U4n3sAAPmAsH9iwI+N0UvlKm3UIoqcevb0Fm+p3xT1oh+vvEwMn3YqzRQY7vukaEU0Qz8chLTGRiH4Itr07l62i66h/Hj95q2nX3yIU9WKwdfLweykXD5JOAMyatw4CAAIIAtBgPvD1zEX7VFVla+d76wVpOl4sIvKXXX1H67IjHA8xFD53TY97MhUiEUTBCJQRqdFeTYko6PVditkd+zIGTcotjG84/9/ee3R+vYRSeswSYPfAP4nIJktjQwAYLNCiV2ysXrEV2mvJqn3ZiqKcF0z+Z0dXb/B+TnLqhXCSga9rv9ioPVshUMTy5vuJyCg7CLK57k9q2dq3sH+oinJufY97s31hHK7vslNSnU/Xa5OhKgrL1GgSrz5+x0SAFC/pBMAv89YjAwBRggyAgXygRs06WpfK9RhYHbaIpWt73DsvXMGf57r3VK23wUeg91g/H+ezLWcrSsEMno3oRES7fdjPU9+rM9sN0GW3P57283fu6u733KoYEyd6uiATjc08Qxzao9IJgFlz12dZodeEOqInbwYf2Hng3A0iuimIFC53LVflnewQLOzjL/DzfN+xTCXuwc4+8GKZFNbDTggtFfi8WiMi+t6HzTzEz8699a/mPUK2fgNPW3o691TyZOfEmo1OKES3BGLwvk/EQ/SldAJg9vwNyAAYqPdnBhJDHbSLsRnfL2aj/nkJoMj5EYqyfl6nof/xFIBlP8YWlbk9oZTQLAj9//gCliouFyIu8HSZO4hopqDHHK42z3/89labZG9TT/Yt6DzkeglHFBvM56pLMJ/MX8L+kk4A/LJgAzIAEAB4BGAQH/jyP/OC3VjlRvMSSR9lJU856inoGuXYyUGTcqvGJmwVRA7uxMKeQX9TsJ9ARAgYowwRsTn9m3SoS/7EWndsMEqberLz+MCJzuRKt7EFnYId+8HGfYT9JZ0AmL1wIwSAQYI/es7ae85mwW7j9gy27707YQX8t6IoO//dpt+nOSmpuuz77imA63nsVPLk/CbFy+lBnC5MWe/zQyIaRkSMqEW82Dx+luJ/iIjmsfS81vb087tbT9VvbWjyd/edb9sOuBQb3OJBS0U0XrBlQACAbNHbhg8E5QPFi5fQMjDszIF+93/lHlTN8DcbPd4rqZrIMQEu8i/8yXqgO4noCyJ6gogGF6wwWJaIYgsRAyP54kRUuWDr2rFE9AoRzSIitkdB4bKF/q8QXfmgRc/dZmhf9zoc6H+/s3x0XKZG/P5aqI3C8q90AmDOws3ZZukdoR7oIVvBB975YAb3gl8saDYqXnZqTkqqVHPA3QN8MH+Pr9FwYzBL42okFXfiZgLhLBFdFlCWe7lcf6uKcubn9imHg8FS1t9u6TXSaVMUNgiWCxMiYgM9S4SF8QtdVD4BsGhLjhWCJuoIcWAmH9C4AuDZTT1HfiFrgA/Wrq9a99tvUxThiyNpIBxeghJyfkKkY9/6HiNygsVR1t93KFMxW2Nb/KUQD4ftXwgApH+DSv+aicRQF+2ibMGyHWwdde7pgLF2+8fZKalnZA3ywdq1u8+YixVi4jRlSDSSixDyDvLa+Z3KVlqXMWiSKcZ2ePKB79sPytWIEVtC2hE2xi90YekEwLwlW/EIAKIEosSAPtCuQ7dVGoJi7scte033FGTNciwzeYpzSKXabMEgvQbYyUD6v9vAUv4ftey51yxt56kerD2TouO0ZnZ6F+LgsP4rnwBYuhWPAAwY/NF71t57Ngt22/eduayq6hleEaCQsvS3lNRdnoKtmY6t7DY8q2JMvJYBk9IQvI+2zW+UWHrDrr5jLpmpzTzV5bkGbbXuAfFrWNnew8UhAEC26G3DB4T5wMTUv67xQRJeiezOynWe8RRszXaMzRJ4tmHbrTZF0WP/ea/4ammTQH9TzB65/4f2g0w50K+w/7Ftgx2qTcvUVzZYsLYHDg7rIekEwPy0bcgAgJCEEZJZetdGqcfhU7l5MTFxWrbKPXR04MQ5hQOuWf9P7zvuGpsuqIR5lH6gJO/pvAhFzX6kbvMtbCVEs7ZT4XolV6yldeDf9LAyvZeLyycAlm77zSjBDnYi7Q0fKOoDH3/+s6Y0d5XYhFdzUlKvFw66Zv5/X7+xN4ZVrrNJFb+bom7ZAIdqOzm5VuMNJwbKtY2v3n6ypMuwfIUoz5MY8nOMiQaZ9nb4rxyQTwCkbYcAQAYAGQCD+0DlKjW0rIh3aUW34e/pHchlLP9Q//HXR1SrtyFKtYneeU6YECgRGbVv2h2ddlmpx+/yFfbopk58Sa37ALCFl6R8SScAFqTtOI1eVdFeFTABJkbygaWr9rIV0q776RkVIaco1cY2BMpyBV7Rn/v7jct9s0mXfeNqNFzxVtOuS3b3HcO2pM0XfZ1gyvu14+CjHcpUXMNG1PPiJ/p8h2rLHFCh5uZV3YdLN1VzXY8RFz9s2WPHym53b81JSb0WDOb+fvtW065XNWK7mYhUKdmfiCAADN7TMhIpwFZriZhuPfprmRaYP/WOjv/wF5B5vme9t49b9MpMio5jGxcVnr+dXyzSMWdnr9FLecoMxbknBk7K+2fTbns6lK64IcZmP6aRgIqILD/l3CzpiN47qGKt9bM7Dj4ZinryXINNwXukbvNjdtX2h0GUClFm+Zi4hV+36f9TdkrqDZ4y/Z17ZMAEZ1yE/YIf3DzhzFZjbCcr+TO7pBMAC5ftRAYAogSPAEzgA7sPnb+q2mxa1ppfl5UyJegtY9k+7tMbdzqeGBl1IoDgffwfjTp8IPPGRNt7j7ryQsP2O9qUqrChbFTs7ghF/QMJBlDHwiSVyx45VIyJ38EI/4vWfQ4eHThB2sV7dvYZ7awRV9yvEIq2RSx/o3GX73JSUoVMSRxXvaHWTMwMmclfSgGweMUuCAATBH/09q3V2/fW3g89+tw6DcTk7FK2yotaU/MnB01yvtSow4G4iEje5+nXH6jd5A0j7U9wsP/9uayn/mLDdjsfqtNs88jq9df3r1hjQ8eylTY0K1FuY6uSSet7JlXbMLjSbRtGV2+w8dG6LTb9q1m3fSu7DT/HcPLX+5Xl+119xuSXdERzPYOPUNQdqbc1+SkzecpprfXY0HOEU1UU7hUuiYg9MqgCAcC5UQIEAIjDG5nguPF840hmXn58sYS9GkRA1t6+Y2fyBG6Wqn20bovD0bY/poc5r31jfI2G03JSUm/xXBvnpuomJrb2GpmfYI/Skkn6PeOhKMqhe6vd/u3J5EncjzSalyzHJTrcfO0p2clf0gzAbmQABGYAdqSfPTd3yZaDH37+09b3Ppq52Qrvz76es33xit1HjmTm5UE0hF80fDVz4R4iYs9DC6egff5f2hH9dk5K6mV/5Lqv37i8UdUbpNsUVesKbYXtuDGm2u8i4Ka/a+N7/YifYbul18j8YnaHZvJ39zmF6Fi/8jW/OjxgfHog7fZN2/5al25m+2Kwx+vSv6QbA4AMQHAB+9Cp3Ftv/evr9Xc0brFcVVWt6rVwQDTk/4qiXKpareaat977euPRrPx8iIHgfCsY/GrdVne9ezAO8O/rszqksJS8x97lpp733eyTVH23oijXAiyPx49vdk+q+mZOcuoFb9fHcc/tIgqXRV2G3YixRWh9/u6rrbM6l60y40C/+3d4s5U9HikZGa312kOkZ/4CA+UTAKv2nAkm0Fj4t/mvvPbhaofDoWUVNl83iym+i48vtmvW/PXpFvaPsA6sXL3pSDaRwj2VyqYov+SkTDniHqjXdb/3ao+kqtsUIi17sXP5c/nouK+ykif/4frutuBvfUTAV637XrApymUdhJ17+1+sGZf43bqeIxYVbsdH67bUMuqflb2SiBQIgOmrnDEx8dzbYC6GAOAO1NvTz5wuVboc223M3bnxd1E8rj3xzPTVEAHhyQT0HTBUy7RAZ2qtJmxAoHNRl2GX25Qqz8YTFJ7Kp6uvO2y2xQf63b+6MEngf33I//HbW7E1JLSsuKfVD65XjImbv7jrMDYVNH933zFOu6pyi9UCv2xkFPJndiIDIPB5eziIZd7Sbel2e+QRkH/A4ifv6effWBOOtrL6NfcduXzNZrOx4M4bqPeFexc9VVG2Leo89HuQvj6kz3A9PnCis0dSNb/T/DT4T6D+drNsdMwv9RNK7dN4jfeNRP5SCoClq/eetXqgDLT+67YcP66qqpaAGugNYdbzrv26aPOBQHHGeeIyBk88Pd3ImaqLQyvXeSsnJfUchIBYIbC6+z03SjmiMzQSrwxx6iwRlYIAmL7KOa3greURAARAYMF2z6GLF6OiorUqVRlumLDaEJ+QuBOzBALzNZEC6GhWvjOxeIkdBg70zsRIx48H+9+/ASJAjAiY3rhTpqrwjw+RzIf+ZDTyRwbAwOn/xk1bpUl2A4SV0LVgMX7iw8tFkhvKCkxQfPNj2n4t0wK1tLFev1GI9r3XrPuXOSmpmCroZZaGP4G0p+/Y/OYlyh3Wq41CWC6b5mqHAHDr/bMsgJYMQNqa9HMIpL4D6fy0HWykv5bVqQxH0nrexIqiXFy75VgW/M23v+mBz+317tC0QqAgfzgnqJy88tFx36T3G4dsAIcIYHszvNSoQ1aEKmzdhnDHtR5GJH8pMwBpa/ZDAPjJTFSpWmO1oAAW7hsn7NevUrXGWj0IDmX6FhUbdmScZgIslH6squqxIXeNnr3vyOXsKX96fDERaV3opbDfZo6sXv9TrBng/5HAuh733rqtWPGjAtudjYFqTkT9iSgconKWUclfSgGwbB0EgC/y2HPo4iUi0mPhk8JBzTL/T339w3W+MMd3vslcKz6Dh43UNC2QlzwiIux7Uh98/IfDGbf+MMCYtTsRXeEtz9v5UbaIZTPa9GMzBbCMcKGMQHq/cfnJFW9LF7x2A0u9Vy1EwN2JaIm3NhJ8nK1DUbPQ9Q31r3TTAJevO3Bea0Cxwu+eev71kARNwTeK1GLCZrNl7D544ZIV/EemOu4/du1mRCT3hj0B+5LD4djxtyenzj2alX/FW72/+Tltl6qqQpaaLbhn8otFOOYs6DT0J62bGfl7dm6k748OmOCcUqvxAZv4bM8aP6PuGxPRlzqvGTHVUGzvwVj5BMD6A3gE4OMRwB1NWiy3EjmHqq6t23Ve5o0kcFyfDADD9YWp724S3Mb5iYnFV7z38XcLj2U7bwXSdivWHzgWExPLepMBi4sAzr1ZKSb+h6Vd7loi8xbDeokJtjHTw3VaHLCrNjY9TiSurKyPicjhgc88HapLRJ/pMGaKPXqI93RBIx2TTgCsWH8QGQAfAqBcUgXuNdWb3FZqxeyXe25b8Xa/PWZ/16tWXGuGJHfmz8t2BEIYOEesIChZsoyIaYF5JUuXXf3vmQtXHst2cu/7cODE9WsNGjbRQ1znxUfYl7zZpMuPOSmpV/QiXFnK3dl7zM0RVevtjlBUrUvp+hIL14noQY0EW46IWI9d1PLCozTaIdXP5BMA6w5cQID1HmCjo2O5tlaNj7Xvyk8bl+9cNs5phfeZX0acU1UlR0uvg2F7+OStm/A/7/6nBzY/z1nLpoJpXfr1euWqNX6et3TbEhG2TXrgb2wtd132GLDbbBsfqt105rGBE4/KQtgi7GCj+n/qMOi35iXK7RY4sLKwEGArBLLBfsG+2GI9zxOR1o1+mF1sMSs1WENk+L18AgAZAJ97AdhsESd5yK157dIrrED87nV8bUorzbMkho8Yj0cBPjJQIkjWUxmt2nZixFs46Pv6/0Kz5m1/Wbv52G5P5QVz7IdfV+3UeVOt8+Wj439+r0X377JTUk+LIOFwlLG6+z3X7ql6++4YW4Teu45+7+d5vxYuZen7h4mId/VBNnOklZYLyvgb6QTAyvUHkQHwEYB5BUCLutYTAEwMVCoby/2opICArixbm34yGALBb/kzCAdP3riRkJC4zZ8IUBQlp1vP/j9v33fmsJ447zt29XLzlm3ZaPJ8fzYF871CypFmJcvN+rBFrwWZyZNzwkHkgV6T9fQXdx56dnS1+ltLOaIPBlPvAH97noju05k42ViCcUTEFqfyJThd3/1VZ3tCWrx0AmDVhkMQABAAQT+uODxjWIai8XlfmXLlN+lJLijbs0BIP37tcuMmLRd5GrDF5vAPGz72531Hr2SGEr+33puxXlVtpwIkBxdJaP08VzYqdnFqrSazdvcdszNQYtbzvGMDJzrfbNLlYItSSVvsYmdL+MOIrXRaJYRsyFL6Q4hos5e2ZtNFx4fQnpBcCgLAB9mGMtAEei1kAAIfyzC+f51lXm5mf8HH+cyLb2Lb4DDdG+u3nTg8YfIj8zp26jm3d7/k2a+/9cWCI5l5FwO9R0Sft/vghfMtW3dg2QBRCwf59T82DqFGXPEZ+/uN26InwXsr++SgSc5Jte44ZFfVYJ6VB1LPwuewKZljiEgJCQN6vkg7InqTiH4iok+JKJWISng+1dhHJRQAh8N2o4sOHHqUBwEQuADIXTo2Ny7Grml6l6qq2dvTz2BKaphEgB73TrBl/jB79d64uPhdWkWllt+xPQc29bzvZ29Ercdxti3v7cVKhirr4RIA7FELm95X0tiUaizrIQAMFuAgAAIXAGwswLp/DUz3lFIOJBizNReCJQ383nO636i4HM7MuzXlgceWhHIbbpuiLMlOSd2lB9l7KrN3UnW9B/W5SN/1yRb1aWMs6jSHtdIJgNWbjmJFNh+iBAKATwAwEdC9WQWtjwLypr/56Ya01enH8Q4cg1UbD2ccOHH9ulFJPhC79x2+fHHAoLsXhWo/g0frtnzBE1mLPram+z2MlHUd+Ogmvll2bpA5qNSYtYAA8EG2gQSCUJ8DAcAvAC7PG3UlwqaecAs8rp4HPgMb+awJJ5vNdqpho+Yr3vnwG9MOqtyyOzurVesObGMhUQvMeMQ6xmZ/JxRbDz9Zv/XVENwnbN2HsURkMyZtmsdq6QTAms3HkAHwIUogAPgFAMsCfP33zhtDENg8Bm9cl5wJCYk7ZvywZFeoBXOorrd5d3Zm9x79FyqKImqr4cK+tD0nJXWt6B5/4fKalSynZ/qfTfMcTkQR5qFQY9dEOgGwdgsEgK+gBQGgTQAwEVCncqLmBYJA4gHNkS5MWoX/vzX2/j+v8uXfRv9u16ELZ4fcNWqhzWY7Lthn2IJBbKdBp57vCjHxIjdGYu3PHiewDEnvMI/sNzZT62S9fAJg63FkAJABCHodAEb4hd+ZPw4/oyiKHpuTFCY6/O/j0cLQu8eYfrXFI5l5N//53tfLK1SoxMafiJg+mHdi4MQP9SR/VnZchP2iIOHC7rMPiKieTtyFYgUgAAHgg2xl7I0gA1CU2AsTva//nx7ZZIWgAAeS90HyfjDOe/Wfn6yX8f7Sw6ZVG48c6t1v8ILIyEg2I0Wz36zpNvx1PQUAW+lPVZTcIGy8RkQ/FyyoEymAn1CEzghIJwDWbT1xWY+b0CxlQgAEJwDYxkhlEqO3BBHkNAdwXPN/5Keqtqy9Ry5b7l6fs3jzwZ59Bi2y2+3cS+l+0brPy3oKgPR+47T4Ntuhb3bBkr0JOvMViheMgHQCYP22k5YLCjziBAIgOAHAsgO7Pks5QkSst6Il4OE3gnAbPGREGo/vm+nc9GNXuXc/fLxeK12nAq7+/ymAvP79mmBOQnEhREBGAXDFTDe66LpAAAQvAJgImDSorta1AXgDJM73IhgiIyOPir4/jFSeoihsffmA/SOlUq3n9cwA/NIhJWBb3Ox+LIR8hUsJRgACAGMAigyW8/UM3SzfsUcBDauXWOUWyLQEP/yGg8A8YT1vybZDRiJtkbY6HA6urWgbFy/7kp4C4NOWvbX4M1u3Hy+DIiCdANiwPeOqyJvMbGUhAyAmA8CEzK0lY26x7ZI9EROOBd4zDQarJ5991bKbLiUkluAaFFguOna6ngJg6h0duB9LEFE/g3IfzCYiCABkACyZAXDPZEyf2GK1qiii5z9r6U1Z7jf3jpxg2XEAlapUYwvjBNzmdlV9V08B8OfazS7x2FNwbgswqXERkE4AbNxxChkAH6IEGQBxGQB3EXB5/qjLDw6uv7xYbCTb7U1LTyjgQK4hyJq27J69BlpWANzRuPkGTl+YkZMy5aJeIuCuynVPc9rD/LKqcekPlssnAHaeuma2tL3I+kAA6CMA3MXAhbn3XVryeu9dnz/eccNbD7RZg3fgGBARmxYWsGCxsgDo3nPAOh6siGhRTkrqYb0EQKcylbUsA8w4BC+DIiCfANiVCQGADIDlH0u4CxIj/U1EXCPbrSwARoyezJsB2JadkrpeLwFQL6EUrwBgjwzwMjAC0gmATbsyTb2NaLDZAGQA9M8AGIlwZbMVAsDpDPQef+ypqbwLUp3MSUn9VS8BUC46lvcRwCEDcx9Ml3EQ4OZdWRAAyAAgA+BhLwPZyN6TPRAAgQuAt9+fsZfzEcCN7OTUz/USADE2O++WxmvBosZGQLoMwOZdWTcCVdBWPA8ZAGQAPBGvLMcgAAIXAN/NWnGCUwA4d/cb8089BEBm8hSnQgrv4NdZxqY/WC+dANiyOxsCABkAZACQAQg4lW7UjsCK9Qe5p9392H7gND0EwN6+YwMeuOkmWp9rFtQAACAASURBVD4ChRobAQgAH2QrY2BBBgAZAFl6+57sQAYg8AzAnsOXuEn3lTs6vaiHAFjZbTi3LUT0D2PTH6yXTgBs2/sbMgA+RAmvAGDTshSFzuENDELhA0SU79ZD9EsqVp4FwDoYiqJwbUo1pkYDXfYD+Kl9st+28tCufwaFGhsBCAAfZGuGDICHm1bLjY7fcMxtB+ZYByDQ2BEZGZnJ4y8dSlfSJQPwUYteWu7x4camP1gPAQABoOXGx28gCIT4gNUzAMWKJR7gEQCqouwv7YjZLPoda488ymNHwbndQaHGRkA6AbB97+mbgapnK56n4RGAkECtITjguhAJfn3A6gKgQsUq2w18bzUyNv3BeggAZAD8BmkDByjUTXIRYnUBUL9Bk40Gvr+SQKHGRkA6AbBt35lbVuzZB1pnZAACf75s4MBqGeFidQHQuXsf3v0AZPENNtjTbmz6g/UQAMgAyBJQYIfkvXU9BJXVBcDw++5frweuISiTLRuMl8ERkE4AbE8/iwyAD1GCDAAyACEI7iETY1YXAI889gLvfgAhaxs/frbH4NwH82XcCwACwPdCIhAAEAB+ArMsBBGQHVYXAO988B/e/QACwjUEPrIEDGp8BJAB8NHbDvS5fCjPgwCAAAhBcA8ZyVhdAKzZdPQC7+JJkrT/q8anP9RAPgGw/2xuKAnVaNeCAIAAkIQAhIgEqwsAFn9Kly67w4Bt2hT0aXwEpBMAOw6cgwDwkZWAAIAAMCBZeBULEABO5w+zV7PFgK4bqF0/Nz71oQYMAQgAH2QrY3aAVwDEOiLS+7SqtAxvYBAKHyCimzxEBgHw/2N+Xn71QzYd8DIPdmE6dxsRRYE+zYGAdAJg14HzeTISryw28QqAFnVLr/C0axuOYVdBPXwAuwH6HsTrK44sXrn7YM1addOI6FyYyN1rpsbNnh/MQX2oBUMAAsDkGQAIABC9HkTvrUwIAO0CwCUOjmblX12/7eT+JSv37Pzg0x/2u5FvIATtrFevfdqkyf/aE8jbbo88xFk+BICJtIN0AmD3wQv5rhsBn0WDCTIAIHRv5CvDcQiAovdsMHFs8crdXNsrMzLv0mXEimnTVzkDeTscMWw+f0DCouA8CAAIgMCcKyYmnnujiz2HLjqDuWHM/lsIAAgAGYjemw0QAGIFwMIVu/I4CRoCwEQErXdVpMsAQAD4DiAQABAA3shXhuMQAL7vX94OyoJlOyEA9GZBC5cvnwA4fAkZAB/jEiAAIABkIHpvNkAAiBUA89O25yIDYGGG1rnqEAA+yJZXrYfifAgACABv5CvDcQgAwQJg6bZbEAA6s6CFi5dOAOw9chkZAB+iBAIAAkAGovdmAwSAWAEwb8lWCAALE7TeVYcA8EG2oejR814DAgACwBv5ynAcAkCwAFi6lWthJZYtwCwAvWnTPOVLJwD2Hb2CDIAPUQIBAAEgA9F7swECQKwAmLt4yw08AjAP4cpWEwgAH2TL2zsPxfkQABAA3shXhuMQAGIFwK+LNkMAyMaaJrJHOgGQfuwqMgA+RAkEAASADETvzQYIALECYPbCTdybBOERgIkYWueqQAD4INtQ9Oh5rwEBAAHgjXxlOA4BIFgALNhwDY8AdGZBCxcvnQDYf/waMgA+RAkEAASADETvzQYIALECYNaC9VchACzM0DpXHQLAB9ny9s5DcT4EAASAN/KV4TgEgGABMG/dFQgAnVnQwsVDAEAAOGUgDthgDmEDAQABYGE+NVzVpRMAB05cxyMAH6IEGQBzEKVZBQ8EgFgB8POctcgAGI5WjWMwBIAPsg1FSp/3GhAAEAAyiwcIALEC4Kc5ay7jEYBxCNVolkonAA6evIEMgA9RAgEAAQABIJZkeUV4KM//YfaqSxAARqNV49gLAeCDbEN5owd6LQgACAAIAOsIgO9nrYQAMA6fGs5S6QTAoZM3kQHwIUogACAAIACsIwC+m7XiIjIAhuNVwxgMAeCDbAPtlYfyPAgACAAIAOsIgJmzll+AADAMnxrOUPkEQMYtZAB8iBIIAAgACAAIAF+iAEsBG46Hw2YwBIAPsg1lzz7Qa+khAI7NvCuzV/OKy6IdtgOKQmcVhc6F8u2ItB1qU7/M8l2fpRzhJbeDM4ae7Nw4aVlU5O+2h9RuHoxsqpJZqWzs+vcfarsuP21cPm892fl5S8fmr3m3/4F/jG22Zkinassa1SixqlzJ6E3xMfZdrP42VTmhKkpWpE09GuOI2JUYG7k5qWTM+sY1Sy65r0etBe8/3C7t5Pd3H9Ry7UB/g1kAYsXJtz+lnfdF9p6+gwAIG58a7sLSCYDDp3KRAfAhSkQLgLcfbLOWiLinGnkKPAKO3fzLkAbLAyWblyc0X0VE3GulC7DTGUwZFUvFbrgw975LgdYzd+nY/D8Nrr/WpirZwVzX9VtVVY7eUaPkos8e65h2Y/GY84HaEch5EABiBcB/flwKAWA4WjWOwRAAPsg20F55KM8TKQC+fabLZiK65SIGWT5fur/5Kn9k8/Gj7dcTUZ4sNvPakVQyZmPe0rF5/up5Y9GYvOrli23lLT/Q8xWFznRtUn7ega+H7PVnSyDfQwCIFQAzflhyLtC2dJ2HDIBxCDjclkonAI5k5iED4EOUiBIANxePuRlpV4+5goZMn+wxxNlfR3jtmV5bOPqaTVVOyWSzFlumT2yx2h+p9m1diQmdoDIOAf7+1h01Sy7I/vneY/5s8vU9BIBgAfDd4rMBtt9/fQQCINy0apzrQwD4INtQ9uwDvZYoAfDN01028QaWUJ7/zMgmK70RzfsPt1sXSlv0ulbpBMdWb3Vkx4/NvJtNAbup1/U9lasQnXt4aINfncvG+c1OeLIdAkCsAPh65kIIAOPwqeEshQCwqAAY3q3mMk8EIMuxlreXXuGJYNixfq0rSW07B4aXvdWRHX9yRGP2iOa/PbtQ/l2rQrHFl+ePOuPLPk/fQQCIFQBffbvgDG+7IwNgOB4Om8HSCYCjWfl4BOBDlIjKAHRrUkFqEq1bJdFrerxDw3LLeYOipOfn3Voy5pYnImXHerUMWfrfo8iIiozYefqXezO82efpOAQABEDY2AwX5kYAAsAH2Qaalg/leaIEQJcmSVILgL6tKqV5Ihh27P5+daS2PVCxYVMVn+TaoVG5DYGWpdd5UY6I3adn3ZvlrS0KH4cAECsAvvx2/mnetkUGgJsHLfsD6QRAKMnUiNeyigCY+0rP7YXJxfX/5o8GHeANijKe7+sxB6urDAKA4ZYQG7khd+nYay78fX1CAIgVAF/MmAcBYFl61r/iEADIAHhM/4aTMEsnRm/xRTLsuxrli7H1C6SzncOma+lfDjnuq56yCABWp4HtqrCBgU5/bwgAsQLg8xlzfuPwqd/vB2QA9CdOs1wBAgACQCoSjbApJ49/e7fflPPpWfeejYq0HeINjpKcnxvIFECZBABbL2LeKz29jstwCQMIALEC4NOvfoUAMAvbSlgP2QRAvhHT8qG02cSPAPJZr/7UD8NzXGTi75OtFVC/enG2GqBhFgRy2NUjM5/tutlf3dj3kgkAZ4wjYkd+2rhcX7ZDAIgVAJ98OTuHV7QiAyAh00pqEgQAMgCBZgCu9mlVaZnod3L7qmmP39Noxd4v79S8AM3hGcMy2LoBd3aqlsZrX4l4xzbeAMt7DXb+5OS6y355qfu23KVjfRKoO7nyCgBFoYvJHaqu7d68/Mb2Dcutb1Sz5OZSCVH7VFXh3lHOGyYfPNJukbuNhf+GABArAD799yzu5Z8hACRlWwnNkk0A5IWyN23Ea4UrA6AqCvec8MLkIOP/93SrmeaN7LwdD1U9eAUAe3ziyba8pWOdWz9O/m3yoNs3xEfbj3irVyDHSxaLWuPpGq5jEAAQABLyHEzyggAEADIAAWUAIAD+N+DQRXZ6f4oSAO525qeNc374aLtdjgg1IxDC93BO7pH/DNvjXqb73xAAYgXAR1/8jAyAF/LC4eARkE0A5BqxVx5Km5EB8D8S3Z2Q/P1thQyAJwx+mzXiSlLJmJ0eCN6vIHxwcL25nspkxyAABAuAz3/K4m0jPAIInhitUgIEADIAfgM+C0DIAJgjA+BO3Jfnj7oZF23nnklRvXz8Evdy3P+GABArAD749EcIAKuwcRjqKZsAuBXK3rQRr4UMADIA3nqE3sYAuBN04b83vj+Q7QiZ761MT8dVVTlYuBzX/xAAYgXA+59+n+mpDXwdQwYgDExq0EtCACADgAwA54JCLrLT+1OPMQCebK5QKoZ306EbeWljz3kqCwJArAB47+PvuLe9hgAwKBuHwWwIAAgACACLC4AxfWpz761wbOZdHgcCQgCIFQD/+mgmBEAYiNEql5RNANw0Ylo+lDbjEQAeAXhL/2p5BMB68W8/2IZ7WeX9/x6yExkAsWTvKY68++G3EABWYeMw1BMCABkAZAAsngF4fmzTFd5Ehbfj6f8e4nGzJmQAxIqCdz78hnu6Jh4BhIFJDXpJ2QTADU8qGMf+F1SQAUAGwBspa80ADGhbZYm3Mr0dP/frfUeQAfjffalXjHr7g/9AABiUXI1gNgQAMgDIAFg8AxDtiNjrjei9HL/gXDbuOgRACATAezNOemkDr/ctMgBGoF45bJRNAFzXS0mbpVxkAJAB8EYIWjIAnz3WgTv974hUPab/mSDAIwCxouCf//oKAkAOrjSlFRAAyAB47Um4E42i0PkVb/fbI/Kd/uWQ47eWjLnlqScZqmNWXQmQ4bvvyyHpqqJwDzJrdXuZed7aBwJArAB4891/n3C/DwP5GxkAU3K1LpWSTQBcM0tPXa96hCsDEEjg0XKOotDZ9g3KLc/8cfhv3khFz+NWFQBfPdlpqRbyZ238zz+1WuitTSAAxAqAN975EgJAF+pDoQwByQSAgkcAfjISZhMALtFgU5XMTR8OOuCNWPQ6biUBcHn+qKx//bntohLxkdzT/lztRETnry4Y7XVnSAgAsQLg9be/gAAAV+uGgFQCQFEUZAAsKgAYwbBn2Od+HcEGmDlD9TaTAFAV5fT0SS0Xsfe0iS0X/mVogzlDO1ef06B6iYWxjgi22t81NyIP6NFP4fPrVU302vtnbQYBIFYAvPb258cLt4G///EIQDe+NF3BEAB+CFevVL7Wcs2aAXAFtcEdq6aFivzZdcwkAFwY6vh5c+fng70OAIQAEEv+LEa8+tZnEACmo115KiSbALiqlRit8juzC4BIu+pxfrleogAC4H+7HPoTDk1ql/I6+M/VPsgAiBUB09/8lG3WxJWtQQZAHoKV3RIIAGQAuIILbzDScH7+9UWjPc4xd5GMyE8IgIDJ5cLJ7+8+5A97CACxAuCVNz6GAJCdRQ1sHwQABIB0AuDawtHX/BGNqO8hAAISAPmvTm65KBDMIQAEC4DXPjrKK6KRATAwI4fYdNkEwBWrpPK11tPsjwDsNvV4IEQj6hwIAP8CoEvTCnMCxRsCQKwAePnVDyEAQkyKVrocBAAyAFJlAHq3qLgsULIRcR4EgG8BUCMpPi136diAMzIQAGIFwEvTP4AAsBIjh7iusgmAy1p7xlb5nZkzAKqqZP/2ywivc8xFEH7hMiAAvAuANvXKLs5LG8u1UiMEgFgB8PKr7x/BI4AQs6KFLgcBgAyAFBkARVHOLHm9967CBK33/xAAHgXAhUfubjhfC/YQAGIFwD9eeQ8CwEKEHOqqyiYALlmlJ6+1nibMAFyvWyVx9eEZwzK0EE6wv4EA+KMAqFgmdv3h/wzTPA4DAkCsAHjxlXcPIwMQalq0zvUgAJABCCgDoCh0YeazXTeLfLMe/8W5Iy8HS+LB/B4C4HcBcKNWhWIr50ztuSEYLNlvIQDECoAXpr4DAWAdPg55TWUTABe19oyt8rtwZQBURQnps/lgiSjQ31tYAFwrWcyxZVTv2xZn/jj8VKB4+TsPAkCsAHjupbchAEJOi9a5IAQAMgABZQAgAP6XKvdHgqK+79Co3Abe9K+H869H2tXDZYpHb2pyW6nlI3rUXPrLS903XV84+oooO93LgQAQKwCe/cc/D3loU5/3LNYBsA6BB1tT2QTABav05LXWExkAsRsFmSkDoCh04swvI86xd/7ScXnuxByqvyEAxAqAZ158EwIgWJbD770iAAGADIDP3oSr94EMgPwZAEWhY6Eiem/XgQCAAPDKNvhCOgRkEwDntfaMrfI7ZACQAXCJssKfEABiyVeGmPL0C28cLNzO/v7HIwDpeFZagyAAkAFABoBztzVvvV/Rx3nHAEAAmE8APPXcaxAA0tKn8Q2DAIAAgACAAHCKEi94BCBWhDz57KsQAMbnWWlrIJkAUPEIwI8gwSMAPALwlgJGBkAs+crwCOCJZ6Yf8Nbe3o7jEYC0fCudYRAAfghXhiDgbgMEAASAt8APAWA+AfD4U69AAEhHm+YxSC4BoKrn3MkOfxcNaBAAEAAQAEXvC7PGisf+PnW/t/b2dhwZAPMQtN41kUoAqBAATn+BDAIAAsBb4EcGwHzCAAJAbwq0dvmyCYCz/gjQ6t9DAEAAQACYj+i9xbW/PvkyMgDW5mhdaw8BgDEAmAWAWQCYBSBpHHj0iX9AAOhKgdYuXDYBcMabEsbx/+/1IAOADAAyANbJADzy+Ivp3trb23GMAbA2qfPUHgJAUuXvTfBAAEAAeAv8GANgPmHw8GPPQwDwMBrO5UJANgFw2hvx4TgyAKIWq3Evx2SbAWEvAIMJen9x7S9/fQ4CgIvScDIPAhAABgsYyAAgA4AMgPl6+t6EwEOPPrvPW3t7O45HADwUaO1zZRMAv3m7EXAcGQD3nruov5EBECuosBSwWHECAWBtgta79hAAyABYehbAvd1rpnnrSXk5ni9KfPgrB5sBiSVTI3YiHnzkaWQA9GZBC5cPAWBRAXBX1xpcxOewq4f9EZYRv394aIPlXojeozBSFOVMqOp5Z4dq63lsc9jVnaGyzdt1kAEQK1r+9PBTEAAWJmi9qy6ZALDhEYAfQSJqDMAnf+vARS61Kyes8Rb0jXx83rReO3hItkxi9JZQ1fe9v7TdyWNb3cqJi0Jlm7frQACIFQAPPPTkXh4fYOdiDIDetGme8iEA/BCubGlDUQLg2sLR12yqkhVocPn67503egv6Rj6eu3RsbqRdPRIoDi9PaL4qVPW9NG/kTZuqnA7Uth+e67o8VLZ5uw4EgFgBkPrgExAA5uFb6WoimwDIkY1wZbNHlABgAfytB9qsIaJ8fwRTrXz8Wm8B3wzHmbghojx/OJRKcGzLWzo2L5R1fiO11WZ/drHva1SIX+JcNi5k4xO8YQABIFYATPnT4xAA0tGmeQySSwDYbBAAfjISIgUAC+IFz8BveSOZSqVjN1ycO/Kyt4BvluPPjWm6koiue8OhRLxj22+/jAjZ8393XB8d1nAtEXlvozJxK64sGHXB/Tfh+hsCQKwAmPzAYxAA5uFb6WoilQCw2WzZsvW4ZbNHtABgRLHlo+SDjWqUWKn+75HAZfas+83U1mvy08LfqwwVme3+fPCR5rVLr7CpyqkCIXC1eLxj+7Ojm6xkjwpCZYen62z9OPnIHTVLrrapSk6BbZdKJ0ZvfPvPbZblLx0X0qyEJ/tcxyAAIACkYzkY5BUBCAA/PW4rCABX8GafoU5xu19bpr9lxkFm2yAAxAqASal/3eMtK+XtOAYBeuU7fFEIAdkEQJZshCubPXpkAGQiXtgidmGeUOMJASBWAEyc/CgEQCHSwr/iEIAAQAZA2FawoSYbXE8+sQABIFYAjJ/8CASAOL5DSYUQkE0AZMrW45bNHmQA5CM9CJH/tQkEgFgBMG7SXyAACpEW/hWHAAQAMgDIACz7H4GBzIPDAgJArAAYO+Gh3d6e9Xs7jjEA4gjS7CVJJgAikAHwI0iQAQiOoEDw+uIHASBWAIwZ/yAEgNlZOIz1gwDwQ7h4BKAvYYCQzYUvBIBYATB6/J8gAMJIkGa/NAQABAAeAeARgDAfgAAQLADuhwAwOwmHs36yCYBTsvW4ZbMHjwDM1WM2WwYEAkCsABg19gFkAMLJkCa/tlwCICICAsBPRgICAAJAZtEAASBWAIwckwoBYHISDmf1pBIAERERGbL1uGWzBwIAAgACQCzJynaPu9tz3+jJu7yN9vd2HLMAwkmpxro2BICfHrf7zSjD3xAAEAAQANYRACNGTYIAMBanGspa2QTASRlIVmYbIAAgACAArCMA7rlvAgSAoSjVWMZCACADIGwEuMzEBNtCI5wwBkCsOBl+33gIAGNxqqGslUwARCID4EeQIAMQGiKDYNCGMwSAYAEwAgLAUIxqMGMhAPwQrmyPAyAAtBETCD00uEEAiBUAd4+4HxkAg5GqkcyVTQCckI1wZbMHAiA0RAbBoA1nCACxAuCue8ZBABiJUQ1mKwQAMgAYA4CVAIX5AASAWAEw7J4xO71N9/N2HNMADcbCYTRXKgFgj4w8LluPWzZ7eDMAzWuXXoHerLbeLHDjx42IrnojJk/Hu/UcsFS2e0wme4bcPRoZgDASpNkvDQFgsAxAdHTsPk+B1NuxEvGO7SAyfiIDZvyYHfh6yAlvfujteI/eg+bIRLiy2TJk2EhkAMzOwmGsHwSAwQRA2XLlN3oLpt6OD+5YNe3gjKEnz/wy4hzewEAPH1jxdr89xeMid3jzQW/HR41NhQDwEYMgAMLIjha4tFQCIDIy8phsClw2exo2ar7CWzDFcXICA2Nh8M6H36TJdo/JZM/gofchA2ABIg5XFSEAfKhvmQKBy5bHn3plFUjOWCSH9vLaXpfSj139zeXb+Cw6gDBlyAgIgHCxowWuK5kAcCAD4EeQ7Np/7gIR3QCpeCUVZAHIGNiUS6q4DKRflPTdMUkefC8EgAWIOFxVhADwQ7juN6Msf1eoUGk9BIAxSA7t5L2dHn9q2gJZ7ilZ7RiUcg8EQLjY0QLXlU0AHJX1RpTJrlnz16cTUR7IxTu5ABu5sYmMdOw5kpl3Xab7SkZbBibfDQFgASIOVxUhAAyYAWCBqnad+hgLYJBUN8RIUTHy5rtfYf5/ALGnf/JdEADhYkcLXFcuAeBwHJFRhcto07Z9p89GRkYeBbkUJRdgIjcmDRo2ZVP/8mW8r2SzacCgYdxTK7ESoAWYW1AVIQACUOGyBQWXPQuWbj+kKAobFIiBb8DAED6QkFB83eGMW1dcPoxP34MA+w0cCgEgiOxQTFEEpBIADofjMAKC74BQGJ9/f7tgh6qqORABEEGy+0DJkmXW7tx/LqewD+N/7/d83wFDIACK8haOCEIAAsDAGQBX4Fy18XBGdGzsXtkJAPZZVqTkt2jdfv7hU7kY9McZb/r0uxMCQBDZoZiiCEgmAKKQAeAMEC4RcCjj1q3Jf3p8haqq2SBayxKtdI8B4uLid3z21a+bXX6KT++9fU/Y9O47GAKgKG/hiCAEIAA0Eq6nm1WGY7sPX7yc+ucnVpRLqriBiK5BDEAMhNoHVFXNbNS4edp7H89ci8F+fIRfOIb07puCWQCCyA7FFEUAAsBkAsA9gDAx8M2PS3c99/Lba5koYBkCvIGBHj7w8N9eWDntjY/XzU/bceBoVn6uux/ib+0ioGefZAiAoryFI4IQkE0AHEKw0B4sgB2wgw+Yywd69B6ERwCCyA7FFEUAAsDEGQCQgbnIAO1pvfbs3nsgBEBR3sIRQQjIJQCiog4iyFkvyKHN0ebwAc8+0K3XAAgAQWSHYooiAAGADIATwddz8AUuwCXcPtC1Rz8IgKK8hSOCEJBKAERFRSMDAEECQQIfgA8U+EDX7n0hAASRHYopigAEAIItgi18AD4gqQ906dYHAqAob+GIIARkEwAHwp1yw/WR9oUPwAdk8YFOXXtDAAgiOxRTFAEIAEmVvywBCHaADOED4fOBTl0gAIrSFo6IQkA2AbAfwSZ8wQbYA3v4gFw+0LFLL2QARLEdyimCAAQAMgB4/gsfgA9I6gMdOvWAAChCWzggCgG5BEB0dDp6IHL1QNAeaA/4QPh8oH3H7hAAotgO5RRBAAJAUuWPoBu+oAvsgb0sPtC+QzcIgCK0hQOiEIAAgABA+hc+AB+Q1AfadegKASCK7VBOEQSkEgDR0bF4BCBpIJKlRwQ70Du3kg+0ad8FAqAIbeGAKAQgAEC46P3BB+ADkvpAm3YQAKLIDuUURUA2AbDPSuoedUVvFj4AH/DlA63bdUIGoChv4YggBCAAJFX+voICvgNpwAes4QOt2nSEABBEdiimKAJyCYDY2L0IbNYIbGhntDN8wL8PtGrdcScROXneXbqMWDFt+ipnIG+HI2YPT9lE9ENRGsERoyIgmQCIwyMAZCTwPBo+AB8o8IEWrTpAABiVXQ1gt1QCIDY2DhkABH8Ef/gAfKDAB5q3aAcBYAAiNaqJEAAItgi28AH4gKQ+0Kx5WwgAo7KrAeyWTQDswXNB/88FgREwgg9YwweaNm8DAWAAIjWqiVIJgKio6ANpq9OPG/m9bG36yeXrDpwP9L1645Hz29PPnDPEe//Z3B3pZ516vg+dvIneqKS9UYiO0IsOTQKgKwYBGpWQQ223rgIgsUS59ZwjTLlGu6JsvtHBwMtweOUpinIumLeqqufN8rbZIrLs9sjj7O1wOE44HFEnzfaOiorOiI6OOeV6K6p6hfe+TUl5eG0gMwDYOZgFEGrKlet6ugqAypXrL+d1XpxvOJKCaOOcpgUfh4/r6QPjx7+1CwJALqKV1RpdBUCr1oOW6enoKBuBFD4AH4AP/MEH8p5++pfTEACyUq5cdukqAB555KujuDn/cHOit4zeMnwAPqCbD0RFxe0IlPzxCEAuMg6HNboKAOZgdrvjAEQARAB8AD4AH9DfB5o377MMAiAcVGrMa+ouAHr3mbgKN77+Nz4wBsbwAWv7ABss+uxzc89BABiTjMNhte4C4JVpK/Ii8hZZbAAAEcdJREFUI6P2IThZOzih/dH+8AF9faB1mxSu3j8eAYSDcuW6pu4CgDnZnx/67BCRcgEBQN8AAHyBL3zAmj4QF1d889RXlt/i6f1DAMhFxuGwJiQCgDnakCF/Y2sC5CJAWTNAod3R7vABfXzAZrMf4U39u4QC1gEIB+3Kc82QCQDmcMOHP7tJUZTzCAT6BALgClzhA9byATbq/6mnZuW4CJ33EwJAHjIOhyUhFQDMOR/6y+eHYmIStiFQWStQob3R3vABoT5wrW7dtmkvT112k5f03c+HAAgH7cpzzZALAJfzDR36+IbY2ISteCwgNCjoNr8YwRvtBB8Ivw8oinKmcuXbVzz2+HcZrlgazCcEgDxkHA5LwiYAXE77zLNzzvQb8MDqpk17plWrdsfy0qUrrilZEm9gAB+AD8AHyiZVX1WnTqtlbdrduWzM2Gnbp76yItcVO0V8QgCEg3bluWbYBYAIJ0YZq5zAABjAB+ADvD4AASAPGYfDEgiA6QgavEED58Nn4APm8AEIgHDQrjzXhACAAED2AD4AH7CoD0AAyEPG4bAEAsCiNz56cObowaEd0Y7B+AAEQDhoV55rQgBAAKD3Bx+AD1jUByAA5CHjcFgCAWDRGz+YXgN+i14nfMAcPgABEA7aleeaUbxze1u06M+94QSChTmCBdoR7QgfMJcPREZGpXNywHfy0BcsEYHALR4HqFq1wXIEAXMFAbQn2hM+YD0fYJsHaVia/TMRpIMy5EHgFI8AUBQ1+x8vLb6CgGG9gIE2R5vDB8zjA4MH/20dT+wvOHeqPNQFS0QgkMbrBBUr1V7xyrSV+QgG5gkGaEu0JXzAOj7wxJM/ZqmqmsEb+4lotAjSQRnyIMAUHfca8gkJpTc88ODHBxA0rBM00NZoa/iAsX3gpZfTrrOl11VV5cr8unFEXXmoC5aIQKCrW+NyCwFFUX5TbbbjeAMD+AB8AD4gtw8Q0bUg4v0xEYSDMuRCQCWiE0E4BbdowLX4My7ADJjBB+ADYfaBl+WiLlgjCoGnwuxYEBEaHsOgzUAI8AH4QIh8gM0WqyGKcFCOXAgkEtHZEDkSyB5kDx+AD8AHjOUDmP4nF2cLt2YyBAB6E/AB+AB8AD5QyAcuEFF54YyDAqVCgI0FWFCo4aHSjaXS0V5oL/gAfEC0D9wnFVPBGN0QKENEhyAC0AOAD8AH4APwASJ6Wze2QcFSIlCTiE7i5sfNDx+AD8AHLO0DM4iIZYbxshgCVYhoN25+S9/8otOIKA+pafiAcXzgTZC/xVi/UHXjiIiN/MRNCwzgA/AB+IA1fOAMEQ0rxAX418IIdCGiTRACEELwAfgAfMC0PnCDiN4notIW5jpU3QcC3YnoayK6hCBg2iCAXp41enloZ7SzywfSiehZIqrkI/bjKyDwXwTsRNSWiCYS0TQi+oCIZkryvs4jTiIiIk5Wr1l7vac3EV3hKatg9oQsOMAOeXwSbSFHW3Ddz3Z75HFPcYEdIyKuOENEjGRl8IMviehdImIrv7I0PxvrhRcQMA0Cv/GQ9m216606lu10enrbbBG8MyGYEMILCAABORE4yhMbGjVuscJTXGDHFEVlz8ldPehAPl+XExJYBQTMhQAEgLnaE7UBAqIQgAAQhSTKAQKSIgABIGnDwCwgEGYEIADC3AC4PBDQGwEIAL0RRvlAwJgIQAAYs91gNRAIGAEIgIChwolAwFIIQABYqrlRWSsiAAFgxVZHnYGAfwQgAPxjhDOAgKERgAAwdPPBeCCgGwIQALpBi4KBgBwIQADI0Q6wAgjIhgAEgGwtAnuAgGAEIAAEA4rigIBJEIAAMElDohpAwBsCEADekMFxIGBtBCAArN3+qL0FEIAAsEAjo4pAQAMCEAAaQMNPgICREIAAMFJrwVYgEDoEIABChzWupAGBCkT0SMGOewuJaBHe3Bjc5FmjW1XV7NJlym3x9CaiazxlERHbOwBtBgzgA3L6ANf9bLPZMj3FBXaMiLjiDBEdQ2zQFBvnEtEnRDSCiKI1cKohfqIQ0WMaCCeQTShwDt+mHcALeMEH4APwAfl8gHWwuhqC0TmNfIWzpwnnlM850SZoE/gAfAA+oK8PsMxLN05+lfr0VkSUDwHAtbUmbjJ9bzLgC3zhA/ABWX0gg4hipWZ1DuNmgvxB/vAB+AB8AD4AHwjYB0ZxcKzUp55Cowfc6LIqUtiF3hJ8AD4AHwidD7CBgaZ43YIAgACAD8AH4APwAfhAwD4w2xTsT0QX0egBNzoUdugUNrAG1vAB+ICsPvCtWQQAHgHgJpP1JoNd8E34AHxARh8wzSOAdGQAkAGAD8AH4APwAfhAwD7wplkyAJvQ6AE3uoxKFDahhwQfgA/AB0LrAy+YRQAsgACAAIAPwAfgA/AB+EDAPvCgWQTAO7yNXrx4uXUlS1Zcgzcw0NsHVNV2gtc/2TrpVarWXFu1Ws01eIcXA7vdflxD+zljYhK26e1bKB/xi/mAwxG7S4OP9jGLAHiAt/Ljx7+5c9r0VU68gYHePtCx4/DlvP7Jzh905z1px7KdTrzDh8GqTUcyFEU5r6H9rj33/PzzevsWykf8Yj7QoEHnNA0+WtMsAqAHb+Vbt05ehpsHN08ofOCpp2blaNj5jD0PzR87/s/LIQDCIwDWbzuZFR0dq2mAccmSFdaGwrdwDcQw5gPFipXkHQd3g4gizCIAqvAKAJY2wc2DmydUPlC6dMU1vD7qOr9J89bL9x65fBlCIHRCYMYPS3bZbDbN04uHDH1ifah8C9exdhyb+sryW0TKBVe8CPBzn1nIn9VDJaIzAVb895GmiqKce3nqspu4eax984Sq/dkjJx7/LHyuzWbLmDDl/9o7E9goqjCO/3fX7VZa0RoRQrwgKEYlIrRoiAQNEhKUYNAYA0TwiNoCsZqCJ0hBoJAohigoxguvaLyC8QhRuwVBPFABRbHeUVERjcihHMV8ZkmAdLe7M7szuzO/STaU3dl9M7/3/46Zee97DS2ffbOVRKCAj0VeWfZha69ep650s7hYPJ5onTtv+V6vtEU74fZh469s+uRQf5HF/5cEKQGwc3khi5M+aJrJ2LGNazCecBuPl/1/5JFd3s9Vo+3sv6Nrt+4fDB02ovn6iVNa7mi8e2XjrAWreDljcNOUxhU21qJf9dkt8XjZ9+3wPshnZPP5hRfWrfRSV7QVbh/Wu3dNMhtdHrLPVUFLACYecoIdGu4JJ5zRgvGE23i87P8b6h/9SpI9e+tQm+xTmozKyhIbm+Yu3+OlrmgrvD7M7jRFo7EfHfiLnkFLAE7LFYKN7p01+83tGFB4Dcjrvu/T5zwno3VJGEojadpdN2HR515rivbC67/GjGnMdfCf+RK70xW4LSJpU65JwJAh45ZjQOE1IK/73q4OKyur1uSqU/Yv/jsCp58+qNlrPdFeuH2XDWZ34BseCVz0T53QglxhlJWVfzF33oo2DCnchuRl/985/dUt0WjMUXGZXPXN/t4kDja+w0Zje6kj2gq3z5o85Sm7kt/jwMZt2nwgtxoHMPaNuqRhNcYUbmPyuv8nTly8UYqwjHVp3NrP+AimvLxiPY8S8R9e+xAbw+Yg3tld8lggo3/qpDbkCoVpOxiv18Zr7V1z7fz1DubvZgxGuWqf/d3dIUgkOm2wOzp+6Ic2w+u3Ghqe/M7hgOL5QQ7+dm63OnFqFwy9cgUGFV6D8qvvJ016aKPDUbwkAj7fPaioOOqjGTOX/e2Xdmg3vP6q6uhuq53EOUnVQU8Aukv6J1c4kUhky9RpSzdjVOE1Kr/63nTXufMxH+SqWfZ3d/Xugl9b794Dkjzzx1f44TNGj57uZOS/XTDYgMFQbA84Me5jjz2RAh4skOTLAlE2EPX888e0WIVKJ9rlO94kA7FY/DubeuWH46dNEo4ZM9/YGo3GfnJo7yNCEf0l9ZC02wmk4cNr38HQMDS/NDBt2tLfe/XqZ5W9djjRL98pTCIQiUQ219QMT86e8/ZOv7RBu/il7t1PWeHQxtdJsqnyodkedwhqm1Vsw9gwNj81YCsI9u8/rDkWi+elPK1DWwj7OIO28vLKdXZnZtbst3b4qQfaxh/ZODUXdjw6NJE/daKnOBwluS8eL/t6euNrf2J0GF0xaMAGClZXD09WVXVbnRowuNeFIwh7UM90/jvj8cSXXbv2fGfIBeOX33zLsz8WQ/9zDPih2tr7bHbbTod2vzboU//SJTdNDoHts8yfub0YXjE63zlNyX8tONmdqtq6hRt4uWMwefLTP9wx9eVfWcEPey9Ge7cpf5FI9DeHsaxN0qB0ATLo71ek6h5nyvrTfmbVvczZFqMoOCacFRpAA2gg2Bq47fYXf4nGXFUNDdyyv7kmLaMcZk7/JwbM9Q22geFA6V80gAaKUQP1Nz76tcsaIVZp1KbFh357yU0SYKU+qfaFkyhGJ8ExoUs0EDwNXHX1vLWRSOQPN3FL0tWhj/wpAEdLstKJaW/3d/SZZWI2EANjC56x0af0KRpAA8WigUGDLrMa/04H/O2Pcc8Q/A8mcI6kXR0F+g4+3zl48OgWVg/EWRSLs+A40CIaCIYGpje++oeLEr/7A7/92yqp88Hhj/8ZgYYOAvyBENP+beMCbClGDC8Yhkc/0o9oAA34qYGRI298NxqN/pyH+PSvpP6E+/YJWCWkJ/IA2ZKD7WeeOaT5rruWbfNTOLSN40IDaAANlKYGbKBfZWXVmjzFJJvyN6b90Me7+wnEJb2eJ+D7rETowHMvTVIzoDQNEMdJv6EBNOC1BurrH2m1glNOS9aniV92h5stCwJWH+C9NBDT3vrPtL8t4nLyyTVJKyritZhoDweGBtAAGihuDdjqkZdfPvV9q+gpya7WHcWaNN+7J4u4xy4HEDhG0vo0MN10TFsiUfHpgAEXJa2CE0ZZ3EZJ/9A/aAANFEoDtnjUuHGzP+7Ro6+t9Lm5APHGYtVjkqIHxDb+zJJAlSS7DeMm4Gf8bjQa3dSly3GrBg68NGnLiNrgwTlNyV2FEhy/izNDA2gADXivARsPVjdh0ecjRk5a1afPec0VFUd9nIfpfBnji6S7w7bKX5axPevdDpe0tJBJQDu/vdseGViJx3g80ZpIdNrACwZoAA2ggdLSQCwW/zYSif4iRazqXkfBOp+f2yOEyVlHOXbMSOAwSYs97sB8ioHf8tb44A1vNIAG/NKATfW7ImNE40NHBAzqNhIBTzNZv4yIdnHgaAANlJoGrKKtFbVjKxCBUyWtIwkgCUADaAANoIEi0sCLkmzcGluBCXSSdL+kvUXU+aWWqXK8XF2hATSABtxr4C9J1xU45vHz7RA4S9K7JAFcBaABNIAG0IAPGnhF0vHtxCbe8oiAza+slbTFh84ne3afPcMQhmgADZSaBqxGzWCPYhzNZEHgCEm3SPqVRIArATSABtAAGiiABizwj5VkM9PYipCAjQ+4QdIPBej8UstSOV6urNAAGkAD7jVg5YFHUtSnCCN+mkOKSRom6UlbGZBkgKsBNIAG0AAayEEDmyTdK6k6TYzh7RIhYI8Hxkt6XlKh6j2TZbvPsmEIQzSABvzUgM3jfzh18WgXkWwBI2CDBvtKuknSy5K+zPOSj36Kl7ZxnmgADaCB7DTwT2rBucdTF4g9AhbrOJ0sCZRJsgJDF0uqlzRV0lxJD0p6WtJzvGCABtAAGig5DSyRtFBSk6TbJNVJGirpJFboyzI6shsEIAABCEAAAhCAAAQgAAEIQAACEIAABCAAAQhAAAIQgAAEIAABCEAAAhCAAAQgAAEIQAACEIAABCAAAQhAAAIQgAAEIAABCEAAAhCAAAQgAAEIQAACEIAABCAAAQhAAAIQgAAEIAABCEAAAhCAAAQgAAEIQAACEIAABCAAAQhAAAIQgAAEIAABCEAAAhCAAAQgAAEIQAACEIAABCAAAQhAAAIQgAAEIAABCEAAAhCAAAQgAAEIQAACEIAABCAAAQhAAAIQgAAEIAABCEAAAhCAAAQgAAEIQAACEIAABCAAAQhAAAIQgAAEIAABCEAAAhCAAAQgAAEIQAACEIAABCAAAQhAIMAE/gMh8ZsDNlVgwAAAAABJRU5ErkJggg==;" vertex="1" parent="1">
          <mxGeometry x="91" y="175.5" width="152" height="152" as="geometry" />
        </mxCell>
        <mxCell id="np1AuirhnK_I6b898Ldq-4" value="" style="endArrow=classic;startArrow=classic;html=1;rounded=0;strokeWidth=3;" edge="1" parent="1">
          <mxGeometry width="50" height="50" relative="1" as="geometry">
            <mxPoint x="297" y="237" as="sourcePoint" />
            <mxPoint x="747" y="237" as="targetPoint" />
          </mxGeometry>
        </mxCell>
        <mxCell id="np1AuirhnK_I6b898Ldq-5" value="" style="endArrow=classic;startArrow=classic;html=1;rounded=0;strokeWidth=3;" edge="1" parent="1">
          <mxGeometry width="50" height="50" relative="1" as="geometry">
            <mxPoint x="296.5" y="274" as="sourcePoint" />
            <mxPoint x="746.5" y="274" as="targetPoint" />
          </mxGeometry>
        </mxCell>
        <mxCell id="np1AuirhnK_I6b898Ldq-6" value="&lt;b&gt;Port 20 / DATA&lt;/b&gt;" style="text;html=1;strokeColor=none;fillColor=none;align=center;verticalAlign=middle;whiteSpace=wrap;rounded=0;" vertex="1" parent="1">
          <mxGeometry x="475" y="200" width="93" height="30" as="geometry" />
        </mxCell>
        <mxCell id="np1AuirhnK_I6b898Ldq-7" value="&lt;b&gt;Port 21 / Control&lt;/b&gt;" style="text;html=1;strokeColor=none;fillColor=none;align=center;verticalAlign=middle;whiteSpace=wrap;rounded=0;" vertex="1" parent="1">
          <mxGeometry x="472.5" y="284" width="98" height="30" as="geometry" />
        </mxCell>
        <mxCell id="np1AuirhnK_I6b898Ldq-9" value="&lt;b&gt;Aktives FTP&lt;/b&gt;&lt;br&gt;- FTP Client öffnet einen zufälligen Port und lauscht auf Verbindungen&lt;br&gt;- Client sendet dem Server seine IP-Adresse + Port auf den er auf Verbindungen wartet&lt;br&gt;- Server initiiert eine Verbindung vom Port 20 des Servers zum Port des Clients&lt;br&gt;- Problematisch beim Einsatz von Firewalls und NAT-Systemen&amp;nbsp;" style="rounded=0;whiteSpace=wrap;html=1;" vertex="1" parent="1">
          <mxGeometry x="213" y="359" width="381" height="158" as="geometry" />
        </mxCell>
        <mxCell id="np1AuirhnK_I6b898Ldq-10" value="&lt;b&gt;Passives FTP&lt;/b&gt;&lt;br&gt;-&lt;b&gt;&amp;nbsp;FTP-Server öffnet eine hohe Portnummer und lauscht auf eingehende Verbindungen&lt;br&gt;- Server sendet dem Client seine IP-Adresse + Port auf dem er auf Verbindungen wartet&lt;br&gt;- Client initiiert eine Verbindung zum Port des Servers&lt;br&gt;- Einfacher in Umgebungen mit Firewalls und NAT-Systemen&lt;br&gt;&lt;/b&gt;" style="rounded=0;whiteSpace=wrap;html=1;" vertex="1" parent="1">
          <mxGeometry x="634" y="359" width="259" height="158" as="geometry" />
        </mxCell>
      </root>
    </mxGraphModel>
  </diagram>
</mxfile>
